<svg width="100" height="170" viewBox="0 0 100 170" fill="none" xmlns="http://www.w3.org/2000/svg">
<path d="M12.6259 6.86444C15.242 6.37975 17.8581 5.89506 20.4738 5.41C22.4471 5.04397 21.6121 2.31029 19.6417 2.6752C17.0255 3.16026 14.4094 3.64533 11.7933 4.13002C9.82045 4.49567 10.6555 7.22973 12.6259 6.86444Z" fill="#1A1A1A"/>
<path d="M4.85372 21.235C3.81574 26.1258 9.74584 28.3179 13.6949 25.3737C19.0975 21.3455 18.8585 11.1294 18.9291 5.41803C18.9517 3.59273 15.8201 3.59161 15.7975 5.41803C15.756 8.79152 15.4878 12.139 14.8532 15.4667C14.5887 16.8557 14.3151 18.277 13.8608 19.6251C13.5885 20.2946 13.3157 20.9638 13.043 21.6334C11.8308 24.1379 10.1077 24.2562 7.8732 21.9886C8.2515 20.2054 5.23408 19.4421 4.85372 21.235Z" fill="#1A1A1A"/>
<path d="M24.6808 3.90994C24.3017 9.27873 23.3351 14.9142 23.6946 20.2934C23.849 22.6049 24.3255 26.8503 27.7446 26.8511C30.9346 26.8514 32.6458 23.0621 33.3584 20.7952C35.1009 15.2516 35.7507 9.29249 36.3948 3.57144C36.5993 1.75766 33.4661 1.77031 33.2636 3.57144C32.8347 7.37679 32.279 11.165 31.5236 14.9287C31.2525 16.2801 30.1923 24.6333 27.1712 22.5581C25.7438 21.5775 27.0533 14.6538 27.1589 13.1592C27.3766 10.0763 27.5943 6.99291 27.8124 3.90994C27.941 2.08761 24.8089 2.09468 24.6808 3.90994Z" fill="#1A1A1A"/>
<path d="M40.4347 3.91247C39.7606 10.9165 39.0866 17.9201 38.4125 24.9241C38.261 26.4991 41.2016 26.8819 41.4879 25.301C41.5289 25.0755 41.57 24.8498 41.6107 24.6243C41.9339 22.8392 38.9173 22.0711 38.5912 23.8703L38.4684 24.5473C39.4936 24.6731 40.5189 24.7984 41.5441 24.9241C42.2178 17.9201 42.8918 10.9165 43.5663 3.91247C43.7409 2.09461 40.6084 2.10539 40.4347 3.91247Z" fill="#1A1A1A"/>
<path d="M60.1195 5.3639C60.3708 2.0901 57.0474 -0.816923 53.3945 0.982346C48.8442 3.2239 48.1217 10.2231 47.8596 14.2632C47.6748 17.111 46.5098 23.8502 51.3235 24.3628C55.8837 24.8486 58.4727 19.815 58.8038 16.5304C58.987 14.7133 55.8542 14.7244 55.6722 16.5304C55.4089 19.1443 51.0602 23.7479 50.8413 18.7057C50.7772 17.236 50.8959 15.7302 50.9908 14.2632C51.1087 12.4524 51.2816 10.6252 51.8004 8.86609C52.1007 7.74532 52.5369 6.66806 53.1091 5.63358C53.6837 3.91429 54.9764 3.82427 56.9878 5.3639C56.8482 7.18512 59.9802 7.1773 60.1195 5.3639Z" fill="#1A1A1A"/>
<path d="M75.4069 0.0223751C72.4195 0.470612 69.5405 -0.931011 67.7073 1.94291C65.7209 5.05638 66.0343 10.1283 65.5077 13.6231C65.2054 15.6292 63.3767 20.0948 65.0517 21.8967C67.0624 24.0594 72.714 21.5388 74.8869 21.0426C76.8396 20.597 76.0124 17.8611 74.0543 18.3082C72.7407 18.608 71.2529 19.211 69.9184 19.2526C68.3374 19.3017 68.3246 19.4249 67.9517 18.197C67.4193 16.4468 68.8286 12.377 69.103 10.5561C69.3606 8.84798 69.1577 5.75236 70.0736 4.30498C71.407 2.19772 74.0909 3.07931 76.2395 2.7568C78.2227 2.45884 77.3814 -0.274466 75.4069 0.0223751Z" fill="#1A1A1A"/>
<path d="M68.7017 10.8467C70.5632 10.9806 72.3964 10.8567 74.2284 10.5331C76.2042 10.1838 75.3679 7.44974 73.3958 7.79866C71.8399 8.07355 70.2806 8.12451 68.7017 8.01069C66.6923 7.86599 66.7029 10.7027 68.7017 10.8467Z" fill="#1A1A1A"/>
<path d="M14.1524 57.7622C5.48459 64.7234 4.34925 76.5646 3.29977 86.3429C1.23407 105.587 0.395307 125.313 0.0178211 144.654C-0.155518 153.544 0.756772 163.153 10.8441 167.19C17.5912 169.89 25.5994 169.999 32.841 170C45.1572 170.001 57.6384 169.44 69.8736 168.126C78.7842 167.17 92.2997 166.166 97.2411 158.051C101.207 151.537 99.7123 141.306 99.7731 134.242C99.9008 119.371 99.4625 104.472 98.3818 89.6327C97.6646 79.7927 97.9657 67.302 93.3866 58.1018C91.7563 54.8265 89.1809 54.2923 85.3863 53.6719C77.3519 52.3584 69.034 52.1107 60.8912 51.979C50.9747 51.8187 40.9773 52.0285 31.1294 53.163C25.4642 53.8158 18.8046 54.4705 14.1524 57.7622C12.566 58.8844 14.796 60.8786 16.3668 59.7675C20.6842 56.7128 27.946 56.3144 33.1384 55.7832C40.8183 54.9965 48.5771 54.7681 56.3018 54.7755C63.3923 54.7822 70.505 54.9916 77.5659 55.6013C80.7443 55.8762 87.3468 55.6947 89.8069 57.9411C91.9465 59.8951 92.2348 64.8249 92.7072 67.3548C93.7074 72.7113 94.2726 78.1385 94.7585 83.5504C95.9386 96.6981 96.4459 109.903 96.6123 123.091C96.7326 132.628 97.189 142.497 95.8996 151.99C94.8354 159.825 87.5699 162.316 79.7947 163.847C71.3368 165.513 62.5917 166.036 53.9704 166.484C43.8555 167.01 33.5196 167.667 23.4014 166.841C17.9034 166.393 11.2722 165.523 7.30712 161.646C3.83786 158.253 3.32236 153.269 3.1597 148.863C2.89928 141.794 3.68054 134.687 4.10157 127.634C4.74769 116.812 4.90747 105.973 5.67025 95.1562C6.45808 83.9797 6.20177 67.9314 16.3668 59.7675C17.8775 58.5537 15.6562 56.5543 14.1524 57.7622Z" fill="#1A1A1A"/>
<path d="M71.1359 54.5403C73.1363 57.3651 75.2123 60.1497 77.3552 62.8871C79.5823 65.7331 82.4001 70.448 85.9646 72.0985C92.2809 75.023 91.7029 59.0301 91.7083 56.2986C91.7115 54.4737 88.5803 54.4707 88.5766 56.2986C88.5717 58.8768 88.462 61.465 88.2045 64.0328C88.0283 65.7889 87.4245 67.4945 87.2211 69.2152C87.1324 69.9659 87.7058 69.8882 87.2976 69.4994C86.7944 69.0207 86.2337 68.5933 85.7363 68.1038C81.1728 63.6129 77.4702 58.2359 73.8399 53.1089C72.7551 51.5774 70.0437 52.998 71.1359 54.5403Z" fill="#1A1A1A"/>
<path d="M74.2587 58.3938C75.4967 74.633 76.3987 90.9019 77.0103 107.17C77.4568 119.043 77.7715 130.938 77.47 142.818C77.3069 149.242 78.425 159.504 74.4727 165.245C73.403 166.798 76.1112 168.224 77.1763 166.677C80.94 161.21 80.2705 152.103 80.5022 146.008C80.9614 133.925 80.6587 121.815 80.2352 109.735C79.6346 92.6108 78.6928 75.4859 77.3903 58.3938C77.2523 56.5834 74.1198 56.5696 74.2587 58.3938Z" fill="#1A1A1A"/>
<path d="M77.6609 165.901C79.9447 163.025 82.2281 160.149 84.5115 157.274C86.5012 154.768 88.7369 150.627 91.6997 149.036C91.0676 148.962 90.435 148.888 89.8024 148.814C92.0024 150.431 93.5954 153.611 95.1509 155.721C96.2645 157.232 98.9779 155.814 97.8549 154.29C96.1067 151.918 94.4699 148.612 92.0168 146.809C91.4717 146.409 90.7611 146.242 90.1195 146.587C87.3954 148.05 85.3868 151.345 83.5655 153.63C80.6881 157.237 77.8264 160.856 74.9568 164.469C73.7784 165.953 76.4935 167.37 77.6609 165.901Z" fill="#1A1A1A"/>
<path d="M86.6386 71.1001C86.3765 87.1269 86.1149 103.153 85.8524 119.18C85.8228 121.005 88.9544 121.006 88.984 119.18C89.2461 103.153 89.5081 87.1269 89.7702 71.1001C89.7998 69.2748 86.6686 69.2741 86.6386 71.1001Z" fill="#1A1A1A"/>
<path d="M86.3754 128.423C86.6173 135.306 86.8592 142.19 87.1016 149.074C87.1653 150.894 90.2973 150.902 90.2328 149.074C89.9909 142.19 89.7489 135.306 89.507 128.423C89.4429 126.602 86.3109 126.594 86.3754 128.423Z" fill="#1A1A1A"/>
<path d="M35.8869 53.8327C35.9157 50.4734 35.9724 46.1863 37.8869 43.2365C40.4122 39.3452 47.9591 39.6034 52.3603 39.4252C55.9516 39.2798 63.5945 38.4644 66.5955 40.7268C69.8302 43.1651 68.7487 50.3692 68.3794 53.8327C68.1856 55.648 71.3184 55.6361 71.5111 53.8327C71.958 49.6424 72.777 42.4092 69.2646 39.0648C65.6664 35.6381 56.9366 36.404 52.3603 36.5896C47.7093 36.7775 40.1074 36.6276 36.5351 39.8697C32.9862 43.0907 32.7919 49.549 32.7553 53.8327C32.7397 55.6577 35.8713 55.6595 35.8869 53.8327Z" fill="#1A1A1A"/>
<path d="M35.7665 48.1563C46.9305 46.6814 58.11 46.1908 69.38 46.6174C71.3952 46.6937 71.3911 43.8577 69.38 43.7815C57.8188 43.3436 46.3821 43.9094 34.9339 45.4219C32.9475 45.6841 33.792 48.4171 35.7665 48.1563Z" fill="#1A1A1A"/>
<path d="M40.6694 39.6638C40.3995 41.7145 40.3268 43.7634 40.4501 45.8256C40.5589 47.6409 43.6909 47.6524 43.5817 45.8256C43.458 43.7634 43.5307 41.7145 43.801 39.6638C44.0393 37.8556 40.9056 37.8708 40.6694 39.6638Z" fill="#1A1A1A"/>
<path d="M46.7731 39.3405C46.9292 40.9902 47.0857 42.6392 47.2422 44.2889C47.4131 46.0934 50.5463 46.1098 50.3738 44.2889C50.2173 42.6392 50.0608 40.9902 49.9047 39.3405C49.7334 37.5356 46.6006 37.5193 46.7731 39.3405Z" fill="#1A1A1A"/>
<path d="M53.5182 38.7288V44.2773C53.5182 46.1019 56.6498 46.1052 56.6498 44.2773V38.7288C56.6498 36.9043 53.5182 36.9013 53.5182 38.7288Z" fill="#1A1A1A"/>
<path d="M60.6666 39.0369V43.6606C60.6666 45.4852 63.7982 45.4885 63.7982 43.6606V39.0369C63.7982 37.2123 60.6666 37.209 60.6666 39.0369Z" fill="#1A1A1A"/>
<path d="M26.8276 68.5235C25.3399 66.4914 22.6551 66.0301 20.4116 67.4314C17.4784 69.2641 16.9165 72.917 16.608 75.8817C16.3036 78.8073 16.8565 82.3545 20.3089 83.5515C22.8129 84.4201 25.2244 83.1472 26.0755 80.9748C26.7508 79.2518 23.7264 78.5101 23.056 80.2208C21.5646 81.0756 20.6318 80.9242 20.2576 79.7666C19.6977 79.0774 19.4862 78.2891 19.6238 77.4023C19.604 76.4988 19.7601 75.5763 19.9039 74.6861C20.0349 73.8752 20.1717 73.0602 20.4523 72.2772C20.7299 71.5027 22.6075 67.8837 24.1236 69.9549C25.2326 71.4689 27.9457 70.0501 26.8276 68.5235Z" fill="#1A1A1A"/>
<path d="M34.3817 66.2663C30.4249 66.2801 29.5639 71.121 29.2431 73.8856C28.9515 76.4028 28.7272 81.044 31.7865 82.4263C35.1683 83.9551 37.6846 80.2654 38.5879 77.8725C39.9372 74.297 39.3096 70.412 37.1535 67.2186C36.104 65.6641 33.3946 67.0869 34.4499 68.65C36.1804 71.2133 37.462 76.6051 34.5177 79.0119C32.1776 80.9242 32.2322 77.0244 32.2515 75.7455C32.2659 74.794 32.6495 69.1083 34.3817 69.1023C36.3965 69.0952 36.4006 66.2593 34.3817 66.2663Z" fill="#1A1A1A"/>
<path d="M50.634 66.4074C49.2247 64.7867 46.6258 64.6688 44.8148 65.8323C42.5059 67.3147 41.8832 70.2979 41.5369 72.6608C41.1923 75.0083 40.92 78.0612 42.8427 79.9668C44.5277 81.6366 47.09 81.73 48.9618 80.3407C50.5214 79.1831 48.2947 77.187 46.7478 78.3353C42.9442 81.1586 44.7129 64.1495 48.4196 68.4127C49.6654 69.8456 51.8675 67.8265 50.634 66.4074Z" fill="#1A1A1A"/>
<path d="M58.4323 65.4C54.356 66.3601 54.4155 73.3585 54.3141 76.4047C54.2003 79.8076 55.6568 84.2542 60.528 82.5926C64.208 81.3375 65.9738 76.2354 66.0515 73.0275C66.1418 69.3185 63.3939 65.8791 59.1072 65.8825C57.092 65.884 57.0887 68.7196 59.1072 68.7181C62.4906 68.7158 63.2534 72.0867 62.7001 74.5232C62.5075 75.3713 62.176 76.1975 61.8145 76.9961C61.1351 78.4974 60.9568 79.3496 58.9811 79.2295C56.9298 79.1049 57.4219 78.4163 57.4289 76.8964C57.4334 75.9178 57.5098 74.9231 57.6268 73.9504C57.7262 73.126 58.098 68.4093 59.2649 68.1348C61.2136 67.6758 60.3875 64.9399 58.4323 65.4Z" fill="#1A1A1A"/>
<path d="M32.9695 114.766C29.3413 119.211 35.158 126.233 38.0354 129.583C42.428 134.696 49.1513 141.207 56.5995 142.366C62.1698 143.232 65.3971 139.468 64.4684 134.682C63.186 128.077 57.3787 121.737 51.9494 117.482C47.0088 113.61 38.8536 109.201 33.2143 114.479C31.8124 115.791 34.0239 117.798 35.4283 116.484C40.6511 111.596 49.1192 118.644 52.747 122.101C55.8253 125.033 64.0585 133.54 61.2271 138.253C57.9932 143.635 46.9324 134.199 44.6017 132.068C41.7096 129.421 32.1472 120.517 35.6735 116.197C36.8721 114.728 34.1558 113.312 32.9695 114.766Z" fill="#1A1A1A"/>
<path d="M39.651 119.908C37.5541 122.14 40.5091 125.699 41.9706 127.539C44.3945 130.592 47.4936 133.988 51.3227 135.638C54.1006 136.834 57.5588 135.991 57.4767 132.736C57.3859 129.119 53.2697 125.772 50.4716 123.648C48.4088 122.082 42.9658 117.712 39.9677 119.685C38.3539 120.749 39.9147 123.21 41.5483 122.134C41.8609 121.929 43.7722 122.831 44.5608 123.255C46.2018 124.137 47.7245 125.199 49.1453 126.349C50.0038 127.045 56.0131 132.117 54.1512 133.401C52.5776 134.487 47.6801 129.407 46.8693 128.578C45.5898 127.27 44.4002 125.877 43.4008 124.38C43.0336 123.83 42.6298 123.251 42.3776 122.648C42.0983 121.979 42.2725 121.479 41.8654 121.913C43.1642 120.53 40.9593 118.515 39.651 119.908Z" fill="#1A1A1A"/>
<path d="M33.214 114.479C21.7962 123.028 8.53409 140.166 23.6081 151.28C38.8365 162.509 56.3824 153.118 64.4747 139.463C65.4276 137.856 62.7253 136.422 61.7711 138.032C54.4978 150.305 38.0412 159.849 24.547 148.29C12.737 138.173 25.9974 123.545 35.4284 116.484C36.9827 115.32 34.7564 113.324 33.214 114.479Z" fill="#1A1A1A"/>
<path d="M26.2735 131.327C24.3848 133.393 23.3859 135.9 23.6019 138.597C23.7469 140.406 26.8798 140.42 26.7335 138.597C26.5791 136.673 27.1139 134.835 28.4879 133.332C29.7637 131.936 27.5604 129.919 26.2735 131.327Z" fill="#1A1A1A"/>
<path d="M26.1498 144.949H26.4903C28.5051 144.949 28.5084 142.114 26.4903 142.114H26.1498C24.135 142.114 24.1313 144.949 26.1498 144.949Z" fill="#1A1A1A"/>
<path d="M53.6836 103.878C55.0638 101.602 56.188 98.7018 55.5181 96.0749C54.9746 93.9445 53.0523 92.2371 50.527 92.3848C43.5363 92.7925 49.2388 101.83 50.4962 104.43C51.3025 106.098 54.0012 104.656 53.2002 102.999C52.5762 101.709 51.9515 100.419 51.3288 99.1288C50.9989 98.4455 49.5551 96.2214 50.2649 95.4689C51.8287 93.8099 52.5927 97.5896 52.529 98.2457C52.3861 99.7307 51.7629 101.155 50.9796 102.447C50.009 104.047 52.7122 105.48 53.6836 103.878Z" fill="#1A1A1A"/>
<path d="M57.9044 113.271C61.2204 111.733 64.6474 110.065 67.0232 107.389C68.5668 105.65 70.5869 102.41 68.1257 100.556C65.7646 98.7783 62.4059 100.097 60.5291 101.798C57.7861 104.285 56.3792 108.049 55.7483 111.433C55.4156 113.218 58.433 113.985 58.7682 112.186C59.1568 110.102 59.8054 108.091 60.8988 106.214C61.3999 105.353 61.975 104.492 62.7431 103.804C63.4952 103.13 66.106 101.627 65.8915 103.654C65.7166 105.31 63.0672 107.126 61.7174 108.002C60.0276 109.097 58.1693 109.966 56.3238 110.823C54.53 111.656 56.1122 114.103 57.9044 113.271Z" fill="#1A1A1A"/>
<path d="M10.1507 98.4208C8.88558 103.959 8.36762 109.518 8.63584 115.171C8.72169 116.989 11.8537 116.999 11.7675 115.171C11.5111 109.773 11.9609 104.47 13.1706 99.1744C13.5773 97.3934 10.5594 96.6319 10.1507 98.4208Z" fill="#1A1A1A"/>
<path d="M9.47401 126.455H9.81453C11.8293 126.455 11.8326 123.619 9.81453 123.619H9.47401C7.45924 123.619 7.45555 126.455 9.47401 126.455Z" fill="#1A1A1A"/>
<path d="M79.1182 150.127C80.392 151.915 81.8744 153.562 83.563 155.043C84.4445 155.817 85.7938 154.598 84.9111 153.823C83.3355 152.441 81.9528 150.925 80.7641 149.255C80.1016 148.325 78.4507 149.189 79.1182 150.127Z" fill="#1A1A1A"/>
<path d="M78.2414 143.869C80.5519 146.767 82.9996 149.567 85.5894 152.265C86.3957 153.105 87.7389 151.88 86.9371 151.045C84.4541 148.458 82.1033 145.777 79.8873 142.998C79.1759 142.105 77.5217 142.966 78.2414 143.869Z" fill="#1A1A1A"/>
<path d="M78.8222 139.828C81.2641 140.773 82.6841 142.691 84.1891 144.572C85.078 145.682 86.5694 148.133 88.256 148.138C88.56 148.139 88.951 147.979 89.0792 147.71C89.2714 147.306 89.3018 147.026 89.0664 146.626C88.926 146.387 88.5546 146.161 88.2437 146.198C88.2108 146.202 88.178 146.206 88.1451 146.21C86.9465 146.353 86.9309 148.081 88.1451 147.936C88.178 147.932 88.2108 147.928 88.2437 147.925C87.9693 147.782 87.6953 147.64 87.4209 147.497C87.4419 147.533 87.4628 147.569 87.4838 147.604V146.733C87.4669 146.769 87.4501 146.804 87.4333 146.84C87.7072 146.697 87.9816 146.555 88.256 146.412C87.8691 146.411 86.3657 144.358 86.1246 144.062C85.5187 143.317 84.9412 142.553 84.3168 141.819C83.0731 140.359 81.6839 139.073 79.7841 138.337C78.6685 137.905 77.6963 139.392 78.8222 139.828Z" fill="#1A1A1A"/>
</svg>
