<svg width="120" height="170" viewBox="0 0 120 170" fill="none" xmlns="http://www.w3.org/2000/svg">
<path d="M118.508 51.1754C126.771 37.0397 98.4851 29.7191 88.274 27.2706C86.226 26.7794 85.3518 29.5513 87.3976 30.0418C94.8577 31.8309 122.375 38.2408 115.662 49.7247C114.7 51.3695 117.543 52.8254 118.508 51.1754Z" fill="#1A1A1A"/>
<path d="M73.5032 27.2193C54.4139 27.2879 33.2437 27.8198 15.4769 34.6477C8.97058 37.1482 -3.37415 44.3063 0.868012 52.0835C4.23857 58.2629 16.1138 59.9118 22.7944 61.0277C36.0613 63.2432 49.7208 63.8837 63.2043 63.964C76.22 64.0413 89.87 63.9391 102.603 61.281C104.664 60.8505 103.791 58.0782 101.726 58.5095C89.2868 61.1069 75.9243 61.1657 63.2043 61.0899C48.7618 61.004 33.9367 60.4034 19.8207 57.5542C15.1855 56.6182 9.37093 55.5683 5.70119 52.7281C0.685563 48.8452 5.71459 43.4038 9.94854 40.6296C17.1613 35.9046 26.8562 33.9989 35.5494 32.6226C48.0498 30.6438 60.8221 30.1386 73.5032 30.0934C75.6234 30.0858 75.6281 27.2117 73.5032 27.2193Z" fill="#1A1A1A"/>
<path d="M80.4032 61.3778C75.7715 58.2142 74.3784 52.8407 76.2194 48.0606C79.6738 39.0911 89.9645 35.6353 99.9343 37.7045C108.394 39.4601 115.225 44.6779 114.944 52.6971C114.618 62.0021 106.418 66.9666 96.4345 67.2048C94.3177 67.2553 94.3091 70.1298 96.4345 70.0789C106.965 69.8275 116.387 64.8917 118.011 55.2647C119.661 45.4888 112.834 38.0253 102.295 35.2809C91.9649 32.5919 80.6167 35.103 75.0343 43.5123C70.787 49.9104 70.9711 58.5595 78.0724 63.4105C79.7235 64.5381 82.072 62.5178 80.4032 61.3778Z" fill="#1A1A1A"/>
<path d="M88.9877 38.0904C99.9939 36.541 109.6 39.9225 109.474 50.7038C109.39 57.8302 106.329 64.5156 98.5681 67.6219C96.6424 68.3925 98.3151 70.8704 100.231 70.1036C110.329 66.062 114.294 55.58 112.427 46.3952C110.276 35.8138 98.6818 33.8308 88.1114 35.3188C86.0232 35.6128 86.909 38.3825 88.9877 38.0904Z" fill="#1A1A1A"/>
<path d="M79.6188 53.1126C80.5972 54.2371 81.8467 55.0555 83.4433 55.3861C85.506 55.8129 86.3859 53.0421 84.3197 52.615C83.6154 52.4691 82.9137 52.178 82.4649 51.6619C81.928 51.0448 81.0434 50.7214 80.2103 51.1466C79.5129 51.5025 79.0779 52.4905 79.6188 53.1126Z" fill="#1A1A1A"/>
<path d="M86.5427 46.482C87.1273 47.2198 87.6409 47.9892 88.0884 48.7967C88.4753 49.4952 89.618 49.6819 90.343 49.312C91.1619 48.8943 91.3227 48.0473 90.9341 47.3461C90.487 46.5386 89.9734 45.7692 89.3889 45.0314C88.8834 44.3939 87.9435 44.1029 87.1342 44.5157C86.4096 44.8855 86.0343 45.8404 86.5427 46.482Z" fill="#1A1A1A"/>
<path d="M98.9477 43.237C98.166 44.5482 97.735 45.9249 97.6364 47.3993C97.5127 49.2469 100.809 49.2408 100.933 47.3993C100.996 46.4478 101.29 45.5332 101.794 44.6877C102.771 43.0489 99.9278 41.5938 98.9477 43.237Z" fill="#1A1A1A"/>
<path d="M102.233 54.991C103.074 54.8017 103.916 54.6121 104.757 54.4229C106.81 53.9611 105.94 51.188 103.881 51.6517C103.04 51.8409 102.198 52.0302 101.357 52.2198C99.3042 52.682 100.174 55.4543 102.233 54.991Z" fill="#1A1A1A"/>
<path d="M83.4742 13.7166C85.003 15.1933 86.5313 16.6699 88.0597 18.1465C89.4838 19.5225 91.8089 17.4849 90.3904 16.1142C88.8617 14.6376 87.3333 13.1609 85.805 11.6843C84.3808 10.3083 82.0557 12.3459 83.4742 13.7166Z" fill="#1A1A1A"/>
<path d="M78.6461 18.4972C81.0961 19.8717 83.5462 21.2458 85.9963 22.6199C87.7854 23.6234 89.44 21.1369 87.66 20.1386L80.3097 16.0156C78.5202 15.012 76.8657 17.499 78.6461 18.4972Z" fill="#1A1A1A"/>
<path d="M76.2062 24.3537C78.6048 25.4522 81.1833 26.0279 83.895 26.0381C86.016 26.0456 86.0191 23.1719 83.895 23.164C81.7648 23.1561 79.7574 22.7368 77.8698 21.8721C75.9934 21.0129 74.3255 23.4923 76.2062 24.3537Z" fill="#1A1A1A"/>
<path d="M74.7826 62.0122C72.0074 72.8764 68.9369 83.6762 65.7189 94.4469C64.3661 98.9737 62.6035 103.552 61.5987 108.15C60.9117 111.295 61.4975 110.57 58.3215 110.795C56.596 110.918 54.7179 110.705 52.9877 110.607C53.5173 111.213 54.0474 111.819 54.577 112.426C58.3626 97.0473 62.1478 81.6692 65.9334 66.2906C68.9818 53.906 72.1094 41.5078 75.5677 29.2069C78.3568 19.2871 83.5436 12.5889 94.3777 8.31239C97.6493 7.02122 101.046 6.08331 104.442 5.08619C105.531 4.76651 106.963 4.09398 108.099 3.98994C110.433 3.77581 110.28 1.80118 110.627 4.98026C110.998 8.37988 105.457 9.28991 102.376 10.4322C95.5701 12.9542 89.513 15.7057 86.3197 21.7759C83.6271 26.8938 82.0291 32.5685 80.8765 38.0965C80.4991 39.9042 83.6751 40.68 84.0547 38.8603C85.2851 32.9617 86.765 25.6396 90.6924 20.6348C95.849 14.0636 105.332 14.2197 111.93 9.6797C114.664 7.79857 117.895 2.18305 113.298 0.298523C110.721 -0.758156 107.061 1.27529 104.791 1.96328C99.7021 3.50551 94.6237 4.88036 89.8252 7.05215C81.2634 10.9271 76.2495 16.7575 73.5124 24.7597C69.8154 35.5678 67.5616 46.8659 64.6934 57.8605C62.5243 66.173 60.5407 74.5231 58.4888 82.8578C56.1256 92.4591 53.762 102.06 51.3988 111.662C51.1636 112.616 51.8805 113.418 52.9877 113.481C56.0024 113.652 59.0267 113.642 62.041 113.813C62.7474 113.854 63.4573 113.339 63.6303 112.758C68.5789 96.1313 73.6767 79.5467 77.9608 62.776C78.4212 60.9744 75.2443 60.2046 74.7826 62.0122Z" fill="#1A1A1A"/>
<path d="M5.13711 57.0697C14.4312 64.5901 19.0573 75.8385 16.5406 86.8007C14.2259 96.8857 5.59756 104.576 4.61398 115.113C3.8885 122.88 6.96896 131.026 14.3465 135.785C22.7621 141.213 50.3456 142.526 37.943 156.344C36.6503 157.784 38.9668 159.832 40.2737 158.376C46.2293 151.741 47.1013 145.231 37.8193 140.988C32.1271 138.386 25.5174 137.818 19.8044 135.29C10.7044 131.264 6.87903 122.851 8.06927 114.267C9.7312 102.28 20.4434 93.3605 20.4827 80.9141C20.5139 71.0338 15.7382 61.7296 7.46788 55.0374C5.91447 53.7805 3.57851 55.8083 5.13711 57.0697Z" fill="#1A1A1A"/>
<path d="M100.65 58.3025C92.6353 64.8948 89.4174 74.225 90.1843 83.6963C91.1783 95.964 102.546 107.391 98.4503 119.829C96.107 126.945 90.2933 131.517 82.7562 134.444C77.7 136.407 72.2554 138.088 68.673 141.984C62.9341 148.224 66.1793 156.538 74.5763 159.137C76.5789 159.756 77.4406 156.981 75.4522 156.365C69.7902 154.613 67.1992 149.398 70.3756 144.788C72.3315 141.95 75.8763 140.272 79.1838 138.9C83.3706 137.162 87.7783 135.939 91.5358 133.487C98.1844 129.148 102.332 122.179 102.674 114.954C103.106 105.826 96.7491 98.0616 94.4663 89.4355C91.7313 79.1002 93.8822 67.8186 102.981 60.3348C104.527 59.0629 102.193 57.0332 100.65 58.3025Z" fill="#1A1A1A"/>
<path d="M41.8545 151.664C36.2423 152.155 25.3619 153.217 22.9879 158.631C20.1694 165.057 30.5958 167.348 35.5553 168.244C46.9173 170.298 59.1496 170.504 70.6231 169.102C76.2709 168.413 86.9683 167.077 87.1888 160.413C87.4318 153.078 74.5968 151.85 68.5029 151.664C66.3814 151.6 66.3844 154.474 68.5029 154.538C72.9811 154.675 90.3765 157.585 81.5805 163.407C75.0594 167.723 62.5461 167.098 54.8728 167.013C46.9268 166.924 35.5496 167.127 28.5046 163.308C19.5654 158.461 37.7101 154.9 41.8545 154.538C43.9453 154.356 43.9669 151.48 41.8545 151.664Z" fill="#1A1A1A"/>
<path d="M70.2298 41.6724C56.3325 41.4527 39.5986 41.8017 26.9954 47.674C20.259 50.8127 17.6576 55.8533 23.6153 60.9109C25.1363 62.2021 27.4692 60.1717 25.9461 58.879C18.0082 52.1404 32.6587 48.4253 38.3401 47.179C48.7354 44.8994 59.5505 44.3776 70.2298 44.5465C72.3513 44.5801 72.3518 41.706 70.2298 41.6724Z" fill="#1A1A1A"/>
<path d="M23.04 60.9108C34.2135 68.8847 26.3176 84.46 22.3375 93.8261C18.0534 103.907 12.3845 117.564 22.7101 126.378C42.1483 142.972 96.7759 139.311 91.8394 108.335C90.6081 100.608 86.3162 93.6848 84.3529 86.1406C82.352 78.4521 86.0944 69.676 90.6872 63.1191C91.7957 61.5366 88.9462 60.0909 87.8411 61.6685C83.9573 67.2132 81.0351 73.8887 80.5423 80.3905C80.0005 87.5366 84.0265 94.1877 86.4014 100.848C90.1364 111.323 90.0759 121.049 78.8323 127.784C68.7073 133.849 55.3612 134.471 43.7294 131.988C31.9939 129.483 19.6574 124.473 20.1662 112.464C20.5026 104.526 24.5973 96.8846 27.6795 89.5485C31.4975 80.4603 35.712 66.259 25.3708 58.8785C23.7421 57.7162 21.3971 59.7384 23.04 60.9108Z" fill="#1A1A1A"/>
<path d="M29.2534 105.381C27.8163 112.077 29.9637 119.403 38.0015 121.845C40.0088 122.455 40.8718 119.679 38.8778 119.073C32.6564 117.184 31.349 111.19 32.4316 106.144C32.8198 104.337 29.6434 103.562 29.2534 105.381Z" fill="#1A1A1A"/>
<path d="M44.0349 122.919C43.9155 123.023 43.7962 123.127 43.6765 123.231C42.1749 124.541 44.5048 126.574 46.0072 125.264C46.1266 125.159 46.2463 125.055 46.3656 124.951C47.8672 123.642 45.5373 121.609 44.0349 122.919Z" fill="#1A1A1A"/>
<path d="M23.6098 51.8761C25.2834 54.6096 27.1459 57.2372 29.2017 59.7645C29.9423 60.6753 31.6829 59.8022 30.9341 58.8816C28.8783 56.3543 27.0154 53.7264 25.3422 50.9932C24.7339 49.9995 23.0015 50.8824 23.6098 51.8761Z" fill="#1A1A1A"/>
<path d="M26.8387 50.0005C29.0554 53.5652 31.2724 57.1303 33.4895 60.6954C34.1052 61.6854 35.838 60.8033 35.2219 59.8122C33.0048 56.2474 30.7878 52.6823 28.5711 49.1172C27.9555 48.1273 26.2227 49.0094 26.8387 50.0005Z" fill="#1A1A1A"/>
<path d="M30.6061 48.842C33.5491 52.9266 36.4916 57.0108 39.4346 61.0954C40.1199 62.0462 41.8566 61.1693 41.167 60.2121C38.2245 56.1279 35.2811 52.0433 32.3385 47.9591C31.6533 47.0084 29.9165 47.8852 30.6061 48.842Z" fill="#1A1A1A"/>
<path d="M35.736 47.8417C38.8165 53.2069 42.4905 58.2268 46.7344 62.9481C47.5304 63.8336 48.9411 62.5877 48.1534 61.7112C44.0176 57.1109 40.4685 52.1845 37.4684 46.9584C36.8904 45.9515 35.1593 46.8367 35.736 47.8417Z" fill="#1A1A1A"/>
</svg>
