<svg width="106" height="106" viewBox="0 0 106 106" fill="none" xmlns="http://www.w3.org/2000/svg">
<circle cx="53.009" cy="53.2567" r="51.1126" fill="#EBEBEB" stroke="#F1CC00" stroke-width="3"/>
<path d="M88.9111 72.9487L73.5046 57.5416C73.3988 51.657 71.0505 46.0347 66.9392 41.823C62.828 37.6113 57.264 35.1281 51.3836 34.8803C51.4188 33.8464 51.5706 32.8197 51.8361 31.8198C53.7827 32.9152 55.9625 33.3782 57.8423 31.9187C59.1019 30.9407 59.5123 29.6312 58.9398 28.4158C58.2411 26.9305 56.2271 26.0961 54.3531 26.5139C53.6566 26.6854 53.0024 26.9969 52.4303 27.4294C51.8582 27.862 51.3802 28.4065 51.0253 29.0298C49.8763 28.073 48.8194 27.0107 47.8686 25.8567C47.7175 25.6663 47.4972 25.5434 47.2559 25.5147C47.0145 25.4861 46.7716 25.554 46.5801 25.7037C46.3887 25.8535 46.2642 26.0728 46.2338 26.314C46.2034 26.5551 46.2697 26.7985 46.418 26.991C47.5397 28.3859 48.818 29.6472 50.2277 30.7502C49.8007 32.0863 49.5682 33.4769 49.5374 34.8793C46.0597 35.0127 42.6573 35.9311 39.5848 37.5656C36.5123 39.2002 33.8494 41.5087 31.7953 44.3182C29.7413 47.1276 28.3495 50.3654 27.724 53.7889C27.0984 57.2125 27.2555 60.7332 28.1833 64.0875C29.1111 67.4418 30.7857 70.5428 33.0817 73.1582C35.3777 75.7737 38.2355 77.8359 41.4414 79.1904C44.6472 80.545 48.1179 81.1568 51.5936 80.9801C55.0694 80.8034 58.4602 79.8427 61.5121 78.17C65.8902 80.5618 70.9248 81.4726 75.8634 80.7661C80.8019 80.0596 85.3793 77.7738 88.9111 74.2503C88.9967 74.1649 89.0646 74.0635 89.1109 73.9518C89.1572 73.8401 89.181 73.7204 89.181 73.5995C89.181 73.4786 89.1572 73.3589 89.1109 73.2472C89.0646 73.1356 88.9967 73.0341 88.9111 72.9487ZM54.755 28.3106C55.8925 28.0559 56.9753 28.5652 57.2741 29.2003C57.464 29.6027 57.2741 30.0278 56.7127 30.463C55.5253 31.3847 53.9927 30.9775 52.5374 30.1041C52.7595 29.6656 53.072 29.2791 53.4542 28.97C53.8364 28.6608 54.2797 28.4361 54.755 28.3106ZM56.2761 74.2488C56.7806 74.7533 57.3052 75.2252 57.8429 75.673C56.0712 76.996 54.098 78.0251 51.9992 78.7208C53.104 75.7035 55.0412 68.8486 55.0412 57.9357C55.0412 46.9959 53.0946 40.1347 51.9897 37.1284C56.0309 38.4154 65.7579 43.0584 65.7579 57.9357C65.7687 60.0129 65.5517 62.0851 65.1108 64.115L56.2771 72.9487C56.1047 73.121 56.0077 73.3547 56.0075 73.5985C56.0073 73.8423 56.1039 74.0762 56.2761 74.2488ZM47.6755 57.9331C47.6755 47.933 49.3796 41.3869 50.4376 38.2854C51.4962 41.3869 53.1998 47.933 53.1998 57.9331C53.1998 67.9331 51.4962 74.4797 50.4376 77.5802C49.3796 74.4792 47.6755 67.9352 47.6755 57.9331ZM45.834 57.9331C45.834 68.8723 47.7807 75.733 48.8856 78.7398C44.8449 77.4529 35.1174 72.8103 35.1174 57.9331C35.1174 43.0558 44.846 38.4138 48.8856 37.1258C47.7828 40.1321 45.834 46.9954 45.834 57.9331ZM72.5939 59.2352L84.2954 70.9368C81.0806 73.8218 76.9134 75.4175 72.5939 75.4175C68.2743 75.4175 64.1071 73.8218 60.8923 70.9368L72.5939 59.2352ZM71.6637 57.5611L67.3589 61.8658C67.5198 60.5611 67.6006 59.2477 67.6009 57.9331C67.6009 47.0344 62.5838 41.177 57.9986 38.0939C61.9567 39.6079 65.3723 42.27 67.807 45.7385C70.2418 49.2071 71.5848 53.324 71.6637 57.5611ZM29.2053 57.9331C29.2104 53.6315 30.5198 49.4325 32.9607 45.8905C35.4016 42.3486 38.8593 39.6301 42.8772 38.0939C38.2915 41.177 33.2743 47.0344 33.2743 57.9331C33.2743 68.8318 38.2915 74.6886 42.8772 77.7717C38.8588 76.236 35.4006 73.5178 32.9592 69.9759C30.5178 66.434 29.208 62.2349 29.2027 57.9331H29.2053ZM58.1891 77.698C58.5779 77.4318 58.9688 77.1393 59.3602 76.8305C59.4654 76.9046 59.5707 76.9804 59.6796 77.0525C59.1887 77.2887 58.692 77.5007 58.1864 77.698H58.1891ZM58.2459 73.5858L59.5917 72.2395C63.1528 75.4695 67.7885 77.2587 72.5962 77.2587C77.404 77.2587 82.0397 75.4695 85.6007 72.2395L86.9471 73.5858C83.0272 77.171 77.9073 79.1592 72.5952 79.1592C67.283 79.1592 62.1632 77.171 58.2432 73.5858H58.2459Z" fill="#1A1A1A"/>
<path d="M73.5137 65.0098V63.9576C73.5137 63.7134 73.4167 63.4792 73.2441 63.3065C73.0714 63.1339 72.8372 63.0369 72.593 63.0369C72.3488 63.0369 72.1146 63.1339 71.942 63.3065C71.7693 63.4792 71.6723 63.7134 71.6723 63.9576V65.0098C71.6723 65.254 71.7693 65.4882 71.942 65.6609C72.1146 65.8336 72.3488 65.9306 72.593 65.9306C72.8372 65.9306 73.0714 65.8336 73.2441 65.6609C73.4167 65.4882 73.5137 65.254 73.5137 65.0098Z" fill="#1A1A1A"/>
<path d="M76.802 70.0397C77.0462 70.0397 77.2804 69.9427 77.4531 69.77C77.6257 69.5973 77.7227 69.3632 77.7227 69.119V68.0667C77.7227 67.8225 77.6257 67.5883 77.4531 67.4157C77.2804 67.243 77.0462 67.146 76.802 67.146C76.5578 67.146 76.3236 67.243 76.151 67.4157C75.9783 67.5883 75.8813 67.8225 75.8813 68.0667V69.119C75.8812 69.2399 75.905 69.3597 75.9512 69.4714C75.9975 69.5831 76.0653 69.6847 76.1508 69.7702C76.2363 69.8557 76.3378 69.9235 76.4496 69.9697C76.5613 70.016 76.6811 70.0398 76.802 70.0397Z" fill="#1A1A1A"/>
<path d="M68.384 67.146C68.1398 67.146 67.9056 67.243 67.7329 67.4157C67.5603 67.5883 67.4633 67.8225 67.4633 68.0667V69.119C67.4633 69.3632 67.5603 69.5973 67.7329 69.77C67.9056 69.9427 68.1398 70.0397 68.384 70.0397C68.6282 70.0397 68.8624 69.9427 69.035 69.77C69.2077 69.5973 69.3047 69.3632 69.3047 69.119V68.0667C69.3046 67.8226 69.2075 67.5885 69.0349 67.4158C68.8622 67.2432 68.6281 67.1461 68.384 67.146Z" fill="#1A1A1A"/>
</svg>
