<svg width="106" height="106" viewBox="0 0 106 106" fill="none" xmlns="http://www.w3.org/2000/svg">
<circle cx="53.009" cy="53.1846" r="51.1126" fill="#EBEBEB" stroke="#F1CC00" stroke-width="3"/>
<path d="M80.1516 57.144C80.0465 56.6251 79.8277 56.136 79.5109 55.7118C79.1941 55.2876 78.7873 54.9388 78.3196 54.6907C78.1688 54.6126 78.0127 54.5451 77.8524 54.4887C78.1201 53.9386 78.239 53.328 78.1974 52.7177C78.1557 52.1073 77.955 51.5186 77.6151 51.0099C76.3189 49.0345 74.6325 47.3449 72.6595 46.0449C72.2184 45.7524 71.718 45.5612 71.1942 45.4852C70.6704 45.4091 70.1362 45.4501 69.6301 45.605C69.4679 45.656 69.3096 45.7188 69.1566 45.7929C69.1001 45.6303 69.0321 45.4721 68.953 45.3193C68.7084 44.8558 68.364 44.4522 67.9447 44.1377C67.5254 43.8232 67.0416 43.6056 66.5281 43.5005C64.2146 43.0192 61.8271 43.0167 59.5127 43.4932C58.9079 43.6109 58.3445 43.885 57.8787 44.2883C57.4129 44.6917 57.0609 45.21 56.8579 45.7918C56.3078 45.5239 55.6971 45.4048 55.0866 45.4465C54.4761 45.4881 53.8872 45.689 53.3786 46.0291C51.4028 47.3248 49.7129 49.0111 48.413 50.9841C48.1202 51.4252 47.9288 51.9258 47.8529 52.4497C47.7769 52.9737 47.8182 53.508 47.9737 54.0141C48.0246 54.1763 48.0872 54.3345 48.161 54.4876C47.9985 54.5441 47.8403 54.6121 47.6875 54.6912C47.2242 54.9359 46.8208 55.2802 46.5065 55.6994C46.1922 56.1186 45.9747 56.6023 45.8697 57.1156C45.3889 59.4289 45.3862 61.8161 45.8618 64.1305C45.98 64.7352 46.2543 65.2985 46.6576 65.7644C47.0608 66.2303 47.5789 66.5826 48.1605 66.7863C48.0859 66.9411 48.0225 67.1009 47.9705 67.2646C47.816 67.765 47.7742 68.2935 47.8481 68.812C47.9221 69.3305 48.11 69.8262 48.3983 70.2635C49.6942 72.2393 51.3807 73.9292 53.3539 75.2291C53.795 75.522 54.2957 75.7134 54.8197 75.7894C55.3438 75.8653 55.8782 75.824 56.3844 75.6684C56.5465 75.6175 56.7048 75.5549 56.8579 75.4811C57.058 76.0596 57.4062 76.5755 57.8677 76.9776C58.3293 77.3797 58.8881 77.6539 59.4885 77.7729C61.8019 78.2544 64.1894 78.2569 66.5039 77.7803C67.1087 77.6626 67.6721 77.3884 68.1379 76.9851C68.6037 76.5817 68.9557 76.0634 69.1587 75.4816C69.7095 75.7466 70.3197 75.8639 70.9295 75.8223C71.5393 75.7806 72.1278 75.5813 72.6374 75.2438C74.6133 73.9481 76.3031 72.2618 77.603 70.2888C77.947 69.7777 78.1513 69.1856 78.1956 68.5712C78.2399 67.9567 78.1227 67.3414 77.8556 66.7863C78.0181 66.7297 78.1763 66.6615 78.3291 66.5822C78.7926 66.3376 79.1961 65.9932 79.5105 65.5739C79.825 65.1546 80.0425 64.6708 80.1474 64.1573C80.6268 61.8443 80.6282 59.4576 80.1516 57.144ZM70.1689 47.3654C70.4156 47.2901 70.676 47.2704 70.9313 47.3078C71.1866 47.3452 71.4304 47.4387 71.6452 47.5817C73.4097 48.7438 74.9178 50.2545 76.0767 52.0211C76.2152 52.2319 76.3055 52.4706 76.3412 52.7203C76.3769 52.9699 76.3571 53.2244 76.2832 53.4655C76.2094 53.7066 76.0833 53.9285 75.9139 54.1154C75.7446 54.3022 75.5361 54.4494 75.3033 54.5465L64.7082 58.936L69.0956 48.344V48.3414C69.1909 48.1093 69.3366 47.9013 69.5223 47.7325C69.7079 47.5637 69.9288 47.4383 70.1689 47.3654ZM58.6867 46.1869C58.8077 45.9593 58.9777 45.7613 59.1845 45.6074C59.3914 45.4534 59.6298 45.3473 59.8826 45.2967C61.9522 44.8702 64.0873 44.8723 66.1561 45.303C66.4033 45.3539 66.6361 45.4588 66.8381 45.6101C67.04 45.7614 67.2061 45.9554 67.3244 46.1783C67.4427 46.4012 67.5103 46.6474 67.5225 46.8995C67.5346 47.1515 67.4909 47.4032 67.3946 47.6364L63.0067 58.2315L58.6178 47.6348C58.5213 47.4034 58.4774 47.1535 58.4893 46.9031C58.5012 46.6527 58.5687 46.4081 58.6867 46.1869ZM49.953 51.998C51.1152 50.2334 52.6264 48.7254 54.3935 47.5669C54.604 47.428 54.8425 47.3373 55.0921 47.3012C55.3417 47.265 55.5962 47.2845 55.8374 47.358C56.0786 47.4316 56.3006 47.5575 56.4875 47.7268C56.6745 47.896 56.8218 48.1045 56.9189 48.3372L61.3078 58.9329L50.7143 54.545C50.4817 54.4509 50.2733 54.3057 50.1045 54.1202C49.9356 53.9347 49.8107 53.7136 49.7389 53.4732C49.6631 53.227 49.6429 52.9671 49.6795 52.7121C49.7162 52.4571 49.8089 52.2134 49.9509 51.9985L49.953 51.998ZM47.6664 63.7595C47.2405 61.6898 47.2427 59.5549 47.6728 57.486C47.7237 57.2388 47.8286 57.006 47.98 56.804C48.1313 56.602 48.3254 56.436 48.5483 56.3177C48.7713 56.1994 49.0176 56.1318 49.2697 56.1196C49.5217 56.1075 49.7734 56.1512 50.0067 56.2475L60.6007 60.6359L50.0045 65.0249C49.7736 65.1228 49.5236 65.1674 49.273 65.1555C49.0224 65.1436 48.7778 65.0754 48.5572 64.9559C48.3294 64.8349 48.1314 64.6648 47.9773 64.4579C47.8233 64.251 47.7171 64.0124 47.6664 63.7595ZM55.8446 73.908C55.5978 73.9837 55.3374 74.0035 55.082 73.9661C54.8267 73.9287 54.5829 73.835 54.3682 73.6917C52.6037 72.5295 51.0956 71.0185 49.9367 69.2518C49.798 69.0412 49.7074 68.8026 49.6714 68.5531C49.6354 68.3035 49.655 68.0491 49.7286 67.8079C49.8022 67.5668 49.928 67.3448 50.0972 67.1578C50.2665 66.9709 50.4748 66.8236 50.7075 66.7264L61.3052 62.339L56.9178 72.9325V72.9352C56.8235 73.1677 56.6781 73.3761 56.4923 73.5447C56.3065 73.7134 56.0851 73.8381 55.8446 73.9096V73.908ZM67.3267 75.0854C67.2057 75.3132 67.0356 75.5112 66.8287 75.6651C66.6218 75.8191 66.3832 75.9252 66.1303 75.9757C64.0608 76.402 61.9259 76.3999 59.8573 75.9693C59.6101 75.9185 59.3772 75.8137 59.1752 75.6625C58.9732 75.5112 58.8071 75.3171 58.6887 75.0942C58.5704 74.8713 58.5028 74.625 58.4907 74.3729C58.4786 74.1208 58.5224 73.8692 58.6188 73.636L63.0067 63.0435L67.3957 73.6397C67.4936 73.8706 67.5383 74.1206 67.5264 74.3712C67.5144 74.6218 67.4462 74.8664 67.3267 75.087V75.0854ZM76.0604 69.2744C74.8982 71.039 73.387 72.547 71.6199 73.7054C71.4094 73.8442 71.1709 73.9349 70.9213 73.971C70.6718 74.007 70.4173 73.9876 70.1761 73.914C69.9349 73.8405 69.7129 73.7146 69.526 73.5454C69.339 73.3762 69.1917 73.1678 69.0945 72.9352L64.7082 62.339L75.3017 66.7264C75.5342 66.8205 75.7426 66.9657 75.9114 67.1512C76.0803 67.3367 76.2053 67.5578 76.2772 67.7981C76.353 68.0449 76.3731 68.3056 76.336 68.5611C76.2989 68.8167 76.2055 69.0609 76.0625 69.276L76.0604 69.2744ZM78.338 63.7853C78.2872 64.0325 78.1824 64.2654 78.0311 64.4675C77.8799 64.6695 77.6858 64.8356 77.4629 64.9539C77.24 65.0722 76.9937 65.1398 76.7416 65.1519C76.4895 65.164 76.2379 65.1203 76.0047 65.0238L65.4106 60.6359L76.0047 56.2475C76.2356 56.1496 76.4856 56.1049 76.7362 56.1169C76.9868 56.1288 77.2314 56.197 77.452 56.3164C77.6798 56.4375 77.8778 56.6076 78.0319 56.8145C78.1859 57.0214 78.2921 57.2599 78.3428 57.5128C78.7702 59.5824 78.7693 61.7177 78.3401 63.7869L78.338 63.7853Z" fill="#1A1A1A"/>
<path d="M63.007 39.7241C59.7924 39.7215 56.6211 40.4646 53.7424 41.8949C50.9929 40.3347 47.8548 39.5929 44.6978 39.7568C45.2634 38.4741 45.5336 37.0808 45.4885 35.6797C45.4434 34.2785 45.0842 32.9055 44.4372 31.6618C43.7903 30.4182 42.8723 29.3358 41.7509 28.4945C40.6296 27.6533 39.3336 27.0747 37.9586 26.8014L28.0674 24.8353C27.919 24.806 27.7655 24.8137 27.6208 24.8578C27.476 24.9018 27.3442 24.9808 27.2372 25.0879C27.1302 25.1949 27.0512 25.3266 27.0071 25.4714C26.9631 25.6162 26.9554 25.7696 26.9847 25.9181L28.9482 35.8119C29.4143 38.1765 30.7787 40.2684 32.7547 41.6482C26.317 45.0322 22.1006 52.418 22.1006 60.6377C22.1006 72.1693 30.3166 81.5512 40.4156 81.5512C41.286 81.5503 42.155 81.4799 43.0142 81.3407C43.8732 81.4799 44.7419 81.5503 45.6122 81.5512C48.4623 81.5389 51.2608 80.79 53.7361 79.3772C56.5603 80.7746 59.6637 81.5156 62.8146 81.545C65.9654 81.5744 69.0821 80.8913 71.9319 79.5468C74.7816 78.2023 77.2907 76.2312 79.2715 73.7807C81.2524 71.3303 82.6539 68.4638 83.3712 65.3956C84.0886 62.3274 84.1033 59.1367 83.4142 56.062C82.7251 52.9873 81.35 50.1081 79.3918 47.6395C77.4335 45.1709 74.9427 43.1768 72.1055 41.8061C69.2682 40.4355 66.1579 39.7238 63.007 39.7241ZM43.1194 33.2028C43.5159 34.1944 43.6958 35.2593 43.6469 36.3261C43.598 37.3929 43.3214 38.4368 42.8358 39.388L30.6823 27.2344L37.6003 28.6097C38.8314 28.8517 39.982 29.399 40.9463 30.2016C41.9107 31.0041 42.6579 32.0361 43.1194 33.2028ZM30.7554 35.4541L29.3807 28.5356L41.5342 40.6891C40.4994 41.2147 39.3569 41.4937 38.1963 41.5041C37.0357 41.5145 35.8885 41.256 34.8445 40.749C33.8004 40.2419 32.888 39.5 32.1786 38.5814C31.4692 37.6628 30.9821 36.5924 30.7554 35.4541ZM45.6132 79.7103C44.7948 79.7094 43.978 79.639 43.1715 79.4998C43.0681 79.4819 42.9624 79.4819 42.859 79.4998C42.0523 79.639 41.2353 79.7094 40.4167 79.7103C31.3342 79.7097 23.9421 71.1539 23.9421 60.6377C23.9421 52.6058 28.2863 45.4626 34.7803 42.7231C36.1791 43.2659 37.6888 43.4612 39.1797 43.2923C40.6707 43.1234 42.0984 42.5954 43.3404 41.7534C46.2276 41.2796 49.1907 41.7071 51.8262 42.9777C48.845 44.8605 46.3889 47.4673 44.6868 50.5553C42.9848 53.6433 42.0922 57.1119 42.0922 60.6379C42.0922 64.1639 42.9848 67.6325 44.6868 70.7205C46.3889 73.8085 48.845 76.4154 51.8262 78.2981C49.8866 79.2276 47.763 79.71 45.6122 79.7097L45.6132 79.7103ZM63.008 79.7103C59.2359 79.7103 55.5485 78.5917 52.4121 76.496C49.2757 74.4004 46.8312 71.4217 45.3877 67.9368C43.9442 64.4518 43.5665 60.617 44.3024 56.9174C45.0383 53.2178 46.8547 49.8195 49.522 47.1522C52.1893 44.4849 55.5876 42.6685 59.2872 41.9326C62.9869 41.1967 66.8216 41.5744 70.3066 43.0179C73.7915 44.4614 76.7702 46.9059 78.8659 50.0423C80.9615 53.1787 82.0801 56.8661 82.0801 60.6382C82.0742 65.6948 80.0628 70.5425 76.4871 74.1179C72.9115 77.6933 68.0635 79.7043 63.007 79.7097L63.008 79.7103Z" fill="#1A1A1A"/>
</svg>
