<svg width="180" height="170" viewBox="0 0 180 170" fill="none" xmlns="http://www.w3.org/2000/svg">
<path d="M3.51431 17.363C9.21455 13.9048 13.2611 8.9333 15.618 2.70853C14.1964 2.31629 12.7743 1.92463 11.3527 1.53297C9.50814 9.39632 14.3833 16.1334 22.2977 17.1436C25.1136 17.5034 25.0875 13.0768 22.2977 12.7205C17.2525 12.0764 14.4819 7.55176 15.618 2.70853C16.2789 -0.10619 12.3478 -1.09665 11.3527 1.53297C9.41705 6.64485 5.94608 10.7135 1.28157 13.5433C-1.14904 15.0176 1.0721 18.8449 3.51431 17.363Z" fill="#1A1A1A"/>
<path d="M3.34128 18.3349C6.21171 16.8303 9.42795 28.5929 9.92695 30.2732C10.6818 32.8205 13.9787 32.054 14.2712 29.6854C14.9472 24.2115 17.9156 19.453 22.4502 16.3453C24.7833 14.7455 22.5738 10.9102 20.2168 12.5256C14.2654 16.6052 10.7288 22.5433 9.84746 29.6854C11.2957 29.4893 12.744 29.2938 14.1917 29.0977C12.6314 23.8355 9.20398 10.2725 1.10854 14.5152C-1.41375 15.837 0.81958 19.6561 3.34128 18.3349Z" fill="#1A1A1A"/>
<path d="M162.254 38.2008C167.058 44.9385 169.786 53.4644 171.807 61.3748C176.783 80.8515 178.195 103.862 170.555 122.812C164.958 136.695 154.854 148.695 142.905 157.596C130.313 166.978 110.91 164.892 95.9053 164.665C81.8747 164.454 67.0021 165.311 55.091 157.607C43.1562 149.889 33.6194 138.447 28.5731 125.127C19.07 100.042 22.1499 58.0576 44.0793 39.0827C57.445 27.5169 80.7867 26.4609 97.3432 25.9421C111.588 25.4959 125.962 26.3732 139.912 29.4032C146.865 30.913 157.816 32.6833 162.6 38.6481C164.381 40.8693 167.492 37.7215 165.727 35.5207C161.88 30.7227 154.292 28.6576 148.697 27.0376C137.334 23.7477 125.37 22.2159 113.577 21.6391C92.2417 20.5953 66.7439 21.3171 47.3762 31.6453C22.6431 44.8352 17.363 83.7133 20.0686 108.202C21.9735 125.442 29.7272 141.475 42.4488 153.31C48.7978 159.215 56.5927 165.431 65.378 166.703C80.4276 168.88 95.7278 169.557 110.914 168.854C119.529 168.454 131.265 169.08 139.214 165.428C149.332 160.778 158.769 150.123 165.122 141.426C179.46 121.796 181.891 98.5389 178.836 74.8902C177.156 61.8848 173.874 46.9101 166.073 35.968C164.435 33.6691 160.597 35.8763 162.254 38.2008Z" fill="#1A1A1A"/>
<path d="M41.0924 35.9683C28.213 55.9986 95.1199 54.8115 98.8839 54.7244C103.006 54.6304 173.26 54.0166 166.3 36.4963C165.262 33.8824 160.982 35.022 162.035 37.6731C165.605 46.6592 106.397 50.0808 102.518 50.2015C86.5858 50.6982 63.3677 53.1416 48.773 44.6742C46.3697 43.2799 43.3896 40.5684 44.9121 38.2011C46.4561 35.7995 42.6283 33.5789 41.0924 35.9683Z" fill="#1A1A1A"/>
<path d="M37.0207 80.7317C31.0222 97.3856 33.8352 118.398 45.0668 132.181C64.8488 156.455 108.091 157.906 135.001 146.866C156.984 137.849 168.977 116.655 168.052 93.2746C167.776 86.2787 167.328 76.4054 161.179 72.1372C150.72 64.8779 135.932 62.8152 123.638 61.3257C105.583 59.1376 86.8391 59.2311 68.9562 62.7688C57.6068 65.0137 42.9675 69.0115 37.2435 80.2037C35.9496 82.7329 39.7646 84.9744 41.0632 82.4364C45.9441 72.8921 58.5416 69.5279 68.2019 67.4321C81.6582 64.5124 95.6842 63.9519 109.406 64.5756C122.411 65.1674 135.739 66.7776 148.108 71.0168C152.044 72.3653 158.23 74.0909 160.736 77.6721C162.397 80.047 162.727 84.6605 163.114 87.4241C165.948 107.655 158.409 128.712 140.3 139.362C116.327 153.46 73.7531 153.207 52.5739 133.723C38.8438 121.092 35.0554 99.2064 41.2866 81.9072C42.2527 79.2248 37.9792 78.069 37.0207 80.7317Z" fill="#1A1A1A"/>
<path d="M75.9071 99.2174C77.1343 93.9785 78.6035 88.7401 80.4829 83.6967C81.6578 80.5408 83.0365 75.8229 86.0932 73.9842C88.7321 72.3961 93.9014 73.0831 96.9116 73.1643C104.647 73.3709 114.383 72.9322 120.528 78.2083C128.516 85.0638 127.342 88.3154 124.252 96.7201C122.355 101.883 119.895 113.921 114.282 115.591C108.952 117.177 99.5407 114.569 93.9582 114.119C92.3933 113.993 88.4129 112.808 90.601 114.236C88.8829 113.115 87.3534 110.583 85.998 109.058C82.4446 105.06 78.8919 101.063 75.3385 97.0653C73.4429 94.9336 70.3241 98.0709 72.2104 100.193C77.338 105.962 83.4281 117.089 91.277 118.325C98.2996 119.431 105.888 119.749 112.992 119.945C117.792 120.077 119.256 118.947 121.639 114.641C125.253 108.11 127.38 100.728 130.021 93.783C132.24 87.9458 132.311 85.1322 128.208 79.8921C119.048 68.1905 103.131 67.5441 89.1974 68.8537C76.6382 70.0339 74.015 87.9086 71.6412 98.0419C70.9925 100.811 75.2573 101.992 75.9071 99.2174Z" fill="#1A1A1A"/>
<path d="M83.7494 73.2664C88.1569 78.304 93.3425 87.6795 99.8312 89.3662C108.908 91.7255 120.146 90.6364 129.549 91.2236C132.391 91.4011 132.381 86.9774 129.549 86.7998C120.281 86.2208 110.831 84.9849 101.552 85.0504C99.6943 85.0632 98.488 84.1453 100.22 85.3875C98.5814 84.2126 97.1192 81.8435 95.8154 80.354C92.8359 76.9486 89.8564 73.5438 86.8775 70.1384C84.9987 67.9921 81.8811 71.1312 83.7494 73.2664Z" fill="#1A1A1A"/>
<path d="M96.6432 86.5013C93.438 96.1176 90.2322 105.734 87.0269 115.35C86.1247 118.057 90.3952 119.218 91.2923 116.526L100.909 87.6769C101.811 84.9701 97.5408 83.809 96.6432 86.5013Z" fill="#1A1A1A"/>
<path d="M38.0402 83.2293C60.1495 92.5607 86.2131 95.5895 109.97 95.0319C127.264 94.6263 150.595 91.9131 163.809 79.0371C165.851 77.0469 162.722 73.9206 160.681 75.9091C147.615 88.6418 123.288 90.5948 106.471 90.6476C84.8437 90.715 59.6185 87.5747 40.2729 79.4096C37.681 78.3159 35.4233 82.1251 38.0402 83.2293Z" fill="#1A1A1A"/>
<path d="M73.1841 92.6495C65.7391 95.4869 55.0819 99.3373 51.6858 107.166C48.129 115.365 48.8299 126.458 49.0045 135.218C49.0614 138.061 53.4851 138.07 53.4277 135.218C53.2774 127.669 53.2501 119.698 54.8237 112.296C56.6793 103.57 66.7406 99.8189 74.3602 96.9154C76.9939 95.9116 75.8514 91.633 73.1841 92.6495Z" fill="#1A1A1A"/>
<path d="M52.9773 107.886C57.6696 113.215 63.1262 119.419 69.5569 122.642C76.2285 125.986 84.4788 121.271 90.2759 117.848C92.7257 116.402 90.5028 112.576 88.0438 114.029C85.2465 115.68 82.2803 117.199 79.212 118.273C74.5841 119.892 72.1134 119.381 68.2972 116.529C63.8027 113.169 59.8072 108.962 56.1053 104.758C54.2201 102.617 51.1019 105.756 52.9773 107.886Z" fill="#1A1A1A"/>
<path d="M74.3582 148.907C82.4119 147.63 91.8489 146.184 98.9022 141.874C106.685 137.116 103.437 124.7 101.893 117.273C101.314 114.488 97.0489 115.667 97.628 118.449C98.4328 122.324 99.0066 126.293 99.1198 130.251C99.2892 136.163 98.0063 137.875 92.6223 139.908C86.4213 142.25 79.7179 143.604 73.1821 144.641C70.3784 145.086 71.5685 149.349 74.3582 148.907Z" fill="#1A1A1A"/>
<path d="M71.5621 121.709V144.788C71.5621 147.634 75.9852 147.639 75.9852 144.788V121.709C75.9852 118.862 71.5621 118.858 71.5621 121.709Z" fill="#1A1A1A"/>
<path d="M101.698 128.936C107.047 128.176 112.383 127.304 117.698 126.335C124.141 125.16 133.099 124.531 138.798 120.923C144.337 117.418 141.36 108.924 139.73 103.882C137.661 97.4829 134.681 92.3328 127.037 94.5731C124.311 95.3726 125.472 99.6426 128.213 98.839C134.043 97.1302 140.185 112.573 136.895 116.936C135.092 119.328 126.898 119.995 124.196 120.569C116.367 122.235 108.447 123.545 100.522 124.67C97.7148 125.068 98.9089 129.331 101.698 128.936Z" fill="#1A1A1A"/>
<path d="M136.955 117.861C137.596 125.555 138.237 133.248 138.879 140.94C139.114 143.757 143.539 143.782 143.302 140.94C142.661 133.248 142.02 125.555 141.379 117.861C141.144 115.045 136.719 115.02 136.955 117.861Z" fill="#1A1A1A"/>
<path d="M99.6534 133.836C100.574 139.605 101.493 145.375 102.413 151.145C102.859 153.948 107.123 152.758 106.678 149.969C105.758 144.199 104.839 138.429 103.919 132.66C103.473 129.856 99.2089 131.046 99.6534 133.836Z" fill="#1A1A1A"/>
<path d="M74.1466 137.606C77.2909 139.366 80.1584 141.483 82.7579 143.978C84.0077 145.179 85.9144 143.277 84.6616 142.075C81.9032 139.426 78.8436 137.15 75.5061 135.281C73.9917 134.434 72.6328 136.759 74.1466 137.606Z" fill="#1A1A1A"/>
<path d="M72.6761 130.951C78.3902 135.036 84.1032 139.121 89.8174 143.206C91.2291 144.216 92.5753 141.882 91.1763 140.881C85.4627 136.796 79.7486 132.711 74.0356 128.626C72.6233 127.616 71.2771 129.95 72.6761 130.951Z" fill="#1A1A1A"/>
<path d="M75.5755 126.167C80.0845 129.088 84.5535 132.07 88.9645 135.137C91.127 136.64 94.6427 140.637 97.4835 140.08C98.1629 139.947 98.6527 139.072 98.424 138.424C98.3857 138.316 98.3469 138.207 98.3092 138.099C98.0892 137.478 97.3645 136.865 96.6526 137.158C96.5789 137.189 96.5052 137.22 96.4309 137.25C94.8521 137.902 95.5443 140.508 97.1475 139.846L97.3686 139.755L95.7126 138.815C95.7509 138.923 95.7892 139.031 95.8275 139.14C96.1408 138.587 96.4541 138.035 96.7675 137.484C96.5708 137.522 93.5506 135.075 92.964 134.661C91.2077 133.423 89.4432 132.196 87.6711 130.982C84.1247 128.552 80.5424 126.179 76.9345 123.842C75.4757 122.898 74.1244 125.228 75.5755 126.167Z" fill="#1A1A1A"/>
<path d="M126.348 101.733C129.548 102.871 132.747 104.009 135.947 105.148C137.583 105.73 138.287 103.129 136.663 102.551C133.464 101.413 130.264 100.274 127.064 99.1366C125.429 98.5547 124.725 101.155 126.348 101.733Z" fill="#1A1A1A"/>
<path d="M124.405 106.53C128.413 107.298 132.096 108.75 135.542 110.939C137.01 111.87 138.362 109.54 136.902 108.614C133.283 106.315 129.332 104.74 125.121 103.934C123.427 103.61 122.702 106.204 124.405 106.53Z" fill="#1A1A1A"/>
<path d="M121.764 109.714C126.959 112.828 132.447 115.273 138.232 117.066C139.891 117.58 140.601 114.982 138.948 114.469C133.377 112.743 128.124 110.387 123.123 107.389C121.632 106.495 120.277 108.822 121.764 109.714Z" fill="#1A1A1A"/>
<path d="M153.593 93.7833C154.032 97.7231 153.637 101.479 152.358 105.232C151.438 107.933 155.709 109.092 156.624 106.408C158.016 102.323 158.495 98.0747 158.017 93.7833C157.705 90.986 153.278 90.9541 153.593 93.7833Z" fill="#1A1A1A"/>
<path d="M152.146 115.265C154.993 115.265 154.997 110.841 152.146 110.841C149.3 110.841 149.295 115.265 152.146 115.265Z" fill="#1A1A1A"/>
</svg>
