<svg width="140" height="170" viewBox="0 0 140 170" fill="none" xmlns="http://www.w3.org/2000/svg">
<path d="M74.4002 58.5406C76.4612 45.2174 81.2552 29.7607 91.9353 19.9523C101.95 10.7559 118.056 6.09388 131.876 3.70582L129.269 2.37873C130.497 6.78409 131.726 11.1884 132.954 15.5933C133.447 14.8144 133.941 14.0355 134.434 13.2566C122.693 14.8274 108.753 18.5744 100.423 26.5494C91.2177 35.3641 87.9867 49.6631 86.8195 61.3393C86.5761 63.7737 90.8153 63.7592 91.0571 61.3393C92.1743 50.1649 95.4287 35.847 104.877 27.9582C112.758 21.3781 125.082 18.3222 135.56 16.9199C136.712 16.7659 137.291 15.4817 137.04 14.5832C135.811 10.1783 134.584 5.77345 133.355 1.36858C133.062 0.317577 131.852 -0.148872 130.749 0.0419922C116.193 2.55763 99.5757 7.67263 88.9389 17.2663C77.6679 27.432 72.4609 43.6565 70.3143 57.5309C69.9441 59.9215 74.0267 60.956 74.4002 58.5406Z" fill="#1A1A1A"/>
<path d="M78.7949 34.1263C62.3136 33.784 43.5001 31.9207 27.3411 35.2421C19.2333 36.9086 21.3332 44.8108 20.5306 50.9021C20.3367 52.3782 20.4773 52.4554 20.4467 52.5137C19.7742 53.8303 18.1939 55.1719 17.2179 56.3375C13.4672 60.8191 9.74765 65.3306 6.23206 69.9637C2.55418 74.8101 -0.0498558 78.2078 0.000724171 83.9971C0.0724254 92.1804 0.9862 100.397 1.71377 108.548C3.34234 126.787 5.35942 144.994 7.22476 163.214C7.54269 166.32 7.04413 168.108 10.4797 169.181C16.0385 170.917 24.9333 169.372 30.6789 169.258C52.4855 168.825 74.3355 168.084 96.0938 166.68C102.852 166.245 108.865 165.482 115.391 163.771C122.259 161.971 136.151 159.477 138.959 152.428C140.952 147.427 139.486 139.912 139.4 134.761C139.225 124.31 138.844 113.861 138.438 103.415C138.072 93.9978 137.637 84.5836 137.256 75.1669C136.994 68.6959 133.727 65.352 128.87 60.4244C125.195 56.6948 120.28 53.2747 117.098 49.2202C115.837 47.613 116.996 50.931 116.812 48.0211C116.653 45.51 116.575 42.9988 116.123 40.5091C114.224 30.0513 105.76 33.1795 96.0471 34.1263C93.3647 34.3875 93.3352 38.1898 96.0471 37.9252C99.6877 37.5704 104.493 36.3704 108.07 36.9255C114.093 37.8609 111.487 44.74 112.6 48.953C113.701 53.1182 118.851 56.2493 122.101 59.3894C126.706 63.8411 132.642 68.1169 132.987 74.401C133.352 81.0688 133.564 87.7476 133.839 94.4184C134.54 111.379 135.522 128.413 135.213 145.39C135.183 147.007 135.643 149.749 134.904 151.273C132.814 155.581 123.891 157.363 119.404 158.688C112.644 160.686 106.202 162.168 99.1469 162.677C80.3756 164.031 61.5065 164.625 42.688 165.162C34.3595 165.4 26.0194 165.641 17.6859 165.605C15.5221 165.595 13.3077 165.386 11.1511 165.444C11.9882 165.421 11.4501 167.918 11.6047 164.59C11.8759 158.711 10.3085 152.313 9.69652 146.462C8.75161 137.444 7.82784 128.425 6.96075 119.4C6.11812 110.632 5.2955 101.858 4.69966 93.0719C4.43564 89.1734 3.21227 83.8585 4.38951 80.0143C6.96019 71.6192 16.9017 63.25 22.511 56.3121C26.2806 51.6486 22.5966 41.884 27.1583 39.1486C29.8184 37.5534 36.5628 38.1918 39.6493 38.0672C45.4099 37.8355 51.1793 37.7702 56.9443 37.7498C64.2278 37.7224 71.5136 37.7742 78.7949 37.9252C81.5228 37.982 81.5217 34.1826 78.7949 34.1263Z" fill="#1A1A1A"/>
<path d="M22.6101 54.9798C39.7879 53.8585 56.9661 52.7372 74.1439 51.6155C76.8474 51.4396 76.8691 47.6387 74.1439 47.8166C56.9661 48.9379 39.7879 50.0591 22.6101 51.1809C19.9066 51.3573 19.8849 55.1577 22.6101 54.9798Z" fill="#1A1A1A"/>
<path d="M99.9903 51.6763H114.729C117.455 51.6763 117.46 47.8769 114.729 47.8769H99.9903C97.2634 47.8769 97.259 51.6763 99.9903 51.6763Z" fill="#1A1A1A"/>
<path d="M109.478 163.752L104.267 113.086C103.249 103.197 102.232 93.3077 101.215 83.4181C101.027 81.5912 100.328 79.2514 100.598 77.4195C101.087 74.1085 104.424 70.1637 106.138 67.1058C109.194 61.6544 112.457 56.3072 115.845 51.0163C114.529 50.6973 113.214 50.3774 111.897 50.0575C113.363 69.7854 114.829 89.5138 116.295 109.242C116.475 111.669 120.714 111.687 120.533 109.242C119.066 89.5138 117.601 69.7854 116.135 50.0575C116 48.25 113.287 47.3809 112.186 49.0992C108.799 54.3891 105.535 59.7373 102.479 65.1882C100.498 68.7214 97.0507 72.9813 96.3709 76.9023C96.1114 78.4018 96.65 80.2302 96.8034 81.7237L99.7804 110.666C101.601 128.361 103.421 146.056 105.241 163.752C105.489 166.167 109.729 166.19 109.478 163.752Z" fill="#1A1A1A"/>
<path d="M2.3461 81.4084C34.2804 80.3071 66.2141 79.2063 98.1479 78.1049C100.866 78.0112 100.88 74.2119 98.1479 74.3055C66.2141 75.4069 34.2804 76.5082 2.3461 77.6096C-0.371877 77.7027 -0.385217 81.5026 2.3461 81.4084Z" fill="#1A1A1A"/>
<path d="M109.46 163.358C114.798 156.311 120.137 149.263 125.476 142.215C124.367 142.343 123.257 142.472 122.148 142.6C126.165 145.754 130.182 148.907 134.2 152.061C136.244 153.667 139.252 150.99 137.196 149.375C133.179 146.221 129.162 143.067 125.144 139.913C124.07 139.07 122.617 139.241 121.817 140.298C116.478 147.346 111.139 154.393 105.801 161.441C104.265 163.469 107.934 165.372 109.46 163.358Z" fill="#1A1A1A"/>
<path d="M119.308 129.121C120.358 133.338 121.129 137.583 121.598 141.884C121.861 144.295 126.101 144.32 125.835 141.884C125.329 137.247 124.526 132.659 123.395 128.111C122.801 125.726 118.715 126.735 119.308 129.121Z" fill="#1A1A1A"/>
<path d="M76.4096 90.7574C58.5955 99.8352 40.7813 108.913 22.9677 117.99C22.234 118.365 21.6487 119.378 21.9939 120.136C29.2969 136.18 47.7864 143.233 65.3193 135.157C83.1401 126.948 86.2766 107.518 79.5217 91.8926C78.5467 89.6371 74.4481 90.6179 75.4358 92.9028C83.453 111.449 73.6083 138.888 46.1528 134.792C40.3183 133.921 35.4365 130.949 31.6258 126.972C30.3124 125.602 26.1798 121.577 26.2676 119.485C26.2482 119.947 32.5106 117.498 34.5372 116.465C39.2528 114.062 43.9684 111.659 48.6834 109.256C58.6383 104.183 68.5931 99.1111 78.5484 94.038C80.919 92.83 78.7863 89.5464 76.4096 90.7574Z" fill="#1A1A1A"/>
<path d="M23.3847 120.793C35.8802 127.295 53.0218 128.341 64.7024 119.9C73.4828 113.555 78.035 102.686 78.1584 92.7235C78.1889 90.2782 73.9519 90.2767 73.9208 92.7235C73.8235 100.609 70.5714 109.305 64.4167 114.989C54.2668 124.362 37.4832 123.735 25.5235 117.513C23.1602 116.283 21.0247 119.565 23.3847 120.793Z" fill="#1A1A1A"/>
<path d="M83.8358 27.6884C87.2864 29.3384 90.7364 30.9884 94.1869 32.6389C96.592 33.7891 98.7352 30.5105 96.3252 29.3583C92.8752 27.7078 89.4246 26.0583 85.9746 24.4078C83.5696 23.2571 81.4263 26.5357 83.8358 27.6884Z" fill="#1A1A1A"/>
<path d="M91.1484 19.7144C93.684 22.2081 96.0157 24.8374 98.1429 27.6211C99.6747 29.6259 103.348 27.7277 101.802 25.704C99.4729 22.6561 96.9206 19.7577 94.1448 17.0278C92.3034 15.2178 89.3136 17.9104 91.1484 19.7144Z" fill="#1A1A1A"/>
<path d="M98.6141 13.0396C100.307 16.7129 101.74 20.458 102.92 24.2892C103.644 26.6429 107.734 25.6432 107.006 23.2791C105.826 19.4478 104.392 15.7033 102.701 12.0295C101.673 9.80137 97.572 10.7781 98.6141 13.0396Z" fill="#1A1A1A"/>
<path d="M69.9441 54.9453C67.1622 55.7546 66.0334 58.6101 67.8587 60.7968C70.3955 63.8372 77.8902 63.5019 81.5192 63.5632C85.0876 63.6235 91.7663 63.8372 93.7756 60.4645C95.6488 57.3224 92.7763 54.6971 89.4319 54.3602C86.7261 54.0876 86.7478 57.889 89.4319 58.1591C89.4402 58.9281 89.0489 59.2894 88.2569 59.243C87.1224 59.5031 85.9674 59.6586 84.7913 59.7095C83.4301 59.8026 82.0594 59.7817 80.6971 59.7319C79.3226 59.6825 77.9536 59.5744 76.5857 59.4458C75.1455 59.3108 72.2102 58.2777 71.0702 58.6091C73.6537 57.8576 72.5487 54.1878 69.9441 54.9453Z" fill="#1A1A1A"/>
<path d="M45.1832 107.95C44.1821 112.202 43.1805 116.454 42.1795 120.706C41.6176 123.091 45.7012 124.111 46.2654 121.716C47.267 117.464 48.268 113.212 49.2696 108.96C49.831 106.575 45.7473 105.555 45.1832 107.95Z" fill="#1A1A1A"/>
<path d="M50.4218 107.222C53.2282 111.401 55.7905 115.69 58.1138 120.102C59.2777 122.311 62.9323 120.385 61.7728 118.184C59.4489 113.773 56.8871 109.483 54.0808 105.304C52.6757 103.212 49.01 105.12 50.4218 107.222Z" fill="#1A1A1A"/>
<path d="M55.7156 104.919C60.4701 106.764 65.3192 108.107 70.4333 108.879C73.1001 109.281 74.2468 105.621 71.5594 105.215C66.8393 104.504 62.251 103.345 57.8544 101.639C55.3777 100.678 53.2166 103.95 55.7156 104.919Z" fill="#1A1A1A"/>
<path d="M34.4963 146.843C40.8661 153.119 50.3384 151.766 58.5979 149.932C61.2437 149.345 60.1231 145.68 57.4713 146.269C50.7191 147.768 42.7853 149.371 37.4928 144.157C35.6535 142.345 32.6638 145.037 34.4963 146.843Z" fill="#1A1A1A"/>
<path d="M74.3225 147.183C74.6293 147.045 74.9362 146.907 75.243 146.769C76.2651 146.308 76.5542 145.014 76.0028 144.169C75.3942 143.237 74.1302 143.025 73.1042 143.488C72.7973 143.626 72.4905 143.764 72.1837 143.903C71.1616 144.363 70.872 145.656 71.4239 146.501C72.032 147.434 73.2965 147.645 74.3225 147.183Z" fill="#1A1A1A"/>
<path d="M6.74722 72.2544C8.39134 74.4601 10.3023 76.4734 12.4917 78.259C13.7178 79.2582 15.547 77.6276 14.3159 76.6239C12.2866 74.9684 10.499 73.1325 8.9744 71.0868C8.05618 69.8564 5.82066 71.0126 6.74722 72.2544Z" fill="#1A1A1A"/>
<path d="M9.61884 67.6451C12.548 71.3149 15.9224 74.6209 19.7804 77.5223C21.0438 78.4726 22.8775 76.845 21.6041 75.8872C17.9201 73.1164 14.6452 69.9848 11.846 66.4775C10.8883 65.278 8.65004 66.4311 9.61884 67.6451Z" fill="#1A1A1A"/>
<path d="M13.871 62.6282C18.1203 68.2311 23.0927 73.2758 28.8044 77.7155C30.0533 78.6868 31.8853 77.0572 30.628 76.0805C25.082 71.7698 20.2269 66.905 16.0982 61.4606C15.17 60.2371 12.9345 61.3928 13.871 62.6282Z" fill="#1A1A1A"/>
</svg>
