<svg width="106" height="106" viewBox="0 0 106 106" fill="none" xmlns="http://www.w3.org/2000/svg">
<circle cx="53.009" cy="53.2208" r="51.1126" fill="#EBEBEB" stroke="#F1CC00" stroke-width="3"/>
<path d="M58.2163 74.6618C57.6359 74.3457 57.0029 74.1378 56.348 74.0484C56.0605 73.4532 55.667 72.9154 55.1869 72.4611C55.0195 72.3163 54.8055 72.2366 54.5842 72.2366C54.3629 72.2366 54.1489 72.3163 53.9815 72.4611C53.5018 72.9156 53.1086 73.4534 52.8209 74.0484C52.1659 74.138 51.5327 74.3458 50.9521 74.6618C50.7624 74.7762 50.6203 74.9552 50.5519 75.1659C50.4835 75.3765 50.4933 75.6048 50.5796 75.8088C50.8635 76.4056 51.2536 76.9457 51.7307 77.403C51.6138 78.0537 51.6158 78.7202 51.7365 79.3701C51.7878 79.5852 51.9143 79.7749 52.0932 79.9049C52.2721 80.0348 52.4916 80.0965 52.712 80.0788C53.3681 79.9926 54.0031 79.7877 54.586 79.4743C55.1686 79.7868 55.803 79.9909 56.4585 80.0767C56.4848 80.0788 56.5111 80.0799 56.5374 80.0799C56.745 80.0796 56.9463 80.009 57.1087 79.8798C57.2711 79.7506 57.3849 79.5702 57.4318 79.368C57.5533 78.7181 57.5554 78.0515 57.4382 77.4009C57.9153 76.9436 58.3053 76.4034 58.5893 75.8067C58.6751 75.6029 58.6846 75.375 58.6161 75.1648C58.5476 74.9546 58.4057 74.776 58.2163 74.6618ZM55.8366 76.377C55.7075 76.4872 55.6114 76.6311 55.5589 76.7925C55.5065 76.954 55.4997 77.1269 55.5394 77.2919C55.592 77.508 55.6301 77.7274 55.6535 77.9486C55.4516 77.8581 55.2556 77.7548 55.0669 77.6392C54.9222 77.5504 54.7558 77.5034 54.586 77.5034C54.4163 77.5034 54.2498 77.5504 54.1051 77.6392C53.9162 77.7547 53.7201 77.858 53.518 77.9486C53.5414 77.7283 53.5792 77.5099 53.6311 77.2946C53.6707 77.1295 53.6638 76.9567 53.6114 76.7952C53.5589 76.6338 53.4629 76.49 53.3339 76.3796C53.1654 76.2358 53.0064 76.0814 52.8577 75.9172C53.0745 75.8715 53.294 75.8399 53.5148 75.8225C53.6841 75.8091 53.8463 75.7492 53.9836 75.6494C54.121 75.5496 54.228 75.4137 54.293 75.2569C54.3775 75.0515 54.4754 74.8518 54.586 74.6592C54.6967 74.851 54.7948 75.0498 54.8796 75.2543C54.9445 75.4111 55.0514 75.5469 55.1887 75.6467C55.3259 75.7465 55.4881 75.8064 55.6572 75.8198C55.8779 75.8369 56.0973 75.8686 56.3138 75.9146C56.1654 76.0787 56.0065 76.2332 55.8382 76.377H55.8366Z" fill="#1A1A1A"/>
<path d="M45.9373 69.5564C45.9636 69.5585 45.9899 69.5596 46.0162 69.5596C46.2237 69.5591 46.4249 69.4885 46.5872 69.3593C46.7496 69.2301 46.8635 69.0498 46.9106 68.8477C47.0313 68.1978 47.0333 67.5313 46.9164 66.8806C47.3936 66.4233 47.7836 65.8832 48.0675 65.2864C48.1538 65.0824 48.1636 64.8541 48.0952 64.6434C48.0268 64.4328 47.8847 64.2538 47.695 64.1394C47.1144 63.8234 46.4812 63.6156 45.8262 63.526C45.5385 62.931 45.1453 62.3932 44.6656 61.9387C44.4981 61.7938 44.2841 61.7141 44.0627 61.7141C43.8412 61.7141 43.6272 61.7938 43.4597 61.9387C42.98 62.3932 42.5868 62.931 42.2991 63.526C41.6456 63.6161 41.0138 63.8239 40.4345 64.1394C40.2448 64.2538 40.1028 64.4328 40.0343 64.6434C39.9659 64.8541 39.9757 65.0824 40.062 65.2864C40.3459 65.8832 40.736 66.4233 41.2132 66.8806C41.0962 67.5313 41.0982 68.1978 41.219 68.8477C41.2696 69.0632 41.396 69.2532 41.575 69.3833C41.7541 69.5134 41.9739 69.5748 42.1944 69.5564C42.8493 69.4697 43.483 69.2649 44.0648 68.9519C44.6472 69.2652 45.2816 69.47 45.9373 69.5564ZM42.9967 67.4262C43.0199 67.2059 43.0577 66.9874 43.1099 66.7722C43.1494 66.6071 43.1426 66.4343 43.0901 66.2728C43.0377 66.1114 42.9416 65.9676 42.8126 65.8572C42.645 65.7134 42.4869 65.5589 42.3391 65.3948C42.5559 65.3491 42.7754 65.3175 42.9962 65.3001C43.1654 65.2867 43.3277 65.2268 43.465 65.127C43.6023 65.0272 43.7094 64.8913 43.7743 64.7345C43.858 64.5291 43.955 64.3295 44.0648 64.1368C44.1751 64.3287 44.273 64.5274 44.3578 64.7319C44.4228 64.8887 44.5298 65.0245 44.6672 65.1244C44.8045 65.2242 44.9667 65.2841 45.136 65.2974C45.3566 65.3148 45.576 65.3465 45.7926 65.3921C45.6451 65.5565 45.4869 65.711 45.3191 65.8546C45.19 65.9649 45.094 66.1087 45.0415 66.2702C44.9891 66.4317 44.9822 66.6045 45.0218 66.7695C45.0733 66.9857 45.1104 67.2051 45.1328 67.4262C44.9307 67.336 44.7347 67.2326 44.5462 67.1168C44.4013 67.0281 44.2347 66.9811 44.0648 66.9811C43.8949 66.9811 43.7283 67.0281 43.5834 67.1168C43.3947 67.2324 43.1987 67.3357 42.9967 67.4262Z" fill="#1A1A1A"/>
<path d="M68.7398 64.1394C68.1594 63.8232 67.5263 63.6153 66.8715 63.5259C66.5839 62.9308 66.1905 62.3929 65.7103 61.9386C65.5429 61.7938 65.329 61.7141 65.1077 61.7141C64.8863 61.7141 64.6724 61.7938 64.505 61.9386C64.0252 62.3932 63.6318 62.931 63.3438 63.5259C62.6892 63.6154 62.0563 63.8233 61.4761 64.1394C61.2862 64.2536 61.144 64.4325 61.0755 64.6432C61.0069 64.8539 61.0167 65.0823 61.103 65.2863C61.387 65.8831 61.7771 66.4232 62.2542 66.8805C62.137 67.5312 62.1391 68.1978 62.2605 68.8477C62.3098 69.0638 62.4357 69.2547 62.615 69.385C62.7943 69.5153 63.0147 69.5762 63.2354 69.5564C63.8916 69.4701 64.5266 69.2653 65.1095 68.9519C65.692 69.2644 66.3265 69.4685 66.982 69.5543C67.0083 69.5564 67.0346 69.5574 67.0609 69.5574C67.2684 69.5571 67.4698 69.4866 67.6321 69.3573C67.7945 69.2281 67.9084 69.0477 67.9553 68.8456C68.0767 68.1957 68.0789 67.5291 67.9616 66.8784C68.4387 66.4211 68.8288 65.881 69.1128 65.2842C69.1985 65.0804 69.208 64.8526 69.1395 64.6423C69.071 64.4321 68.9291 64.2536 68.7398 64.1394ZM66.3601 65.8546C66.231 65.9648 66.1348 66.1086 66.0824 66.2701C66.0299 66.4316 66.0232 66.6044 66.0628 66.7695C66.1155 66.9856 66.1536 67.2049 66.177 67.4261C65.975 67.3357 65.7791 67.2323 65.5904 67.1167C65.4457 67.028 65.2792 66.981 65.1095 66.981C64.9397 66.981 64.7733 67.028 64.6286 67.1167C64.4398 67.2321 64.2439 67.3355 64.042 67.4261C64.065 67.2058 64.1026 66.9874 64.1546 66.7721C64.1943 66.607 64.1875 66.4342 64.135 66.2727C64.0826 66.1112 63.9865 65.9674 63.8573 65.8572C63.6897 65.7133 63.5316 65.5588 63.3838 65.3947C63.6004 65.349 63.8197 65.3174 64.0404 65.3C64.2096 65.2866 64.3717 65.2267 64.509 65.1269C64.6462 65.0271 64.7532 64.8912 64.818 64.7344C64.9021 64.5291 64.9994 64.3294 65.1095 64.1368C65.2202 64.3285 65.3182 64.5273 65.4031 64.7318C65.4679 64.8886 65.5749 65.0244 65.7121 65.1242C65.8494 65.2241 66.0115 65.284 66.1807 65.2974C66.4014 65.3145 66.6207 65.3461 66.8373 65.3921C66.6888 65.5563 66.53 65.7108 66.3617 65.8546H66.3601Z" fill="#1A1A1A"/>
<path d="M76.5521 62.1648C76.5484 59.2842 75.4595 56.5107 73.5025 54.3969C71.5455 52.2831 68.864 50.9842 65.9922 50.7589C65.779 48.0503 64.6102 45.5057 62.6945 43.5791C60.7787 41.6526 58.2407 40.4695 55.5334 40.2411C56.0595 31.4353 64.4112 29.2903 64.7779 29.2009C65.0075 29.1366 65.2032 28.9857 65.3239 28.78C65.4445 28.5744 65.4806 28.3299 65.4247 28.0981C65.3687 27.8664 65.225 27.6653 65.0238 27.5374C64.8226 27.4094 64.5796 27.3645 64.346 27.412C61.4595 28.2566 58.867 29.8921 56.8618 32.1335C56.4175 31.3558 55.7906 30.6978 55.0354 30.2163C54.2801 29.7347 53.4191 29.444 52.5266 29.3692C52.1578 27.9181 51.4462 26.5767 50.4514 25.4577C49.4566 24.3387 48.2078 23.4748 46.8098 22.9386C45.4118 22.4025 43.9056 22.2098 42.4176 22.3766C40.9297 22.5435 39.5036 23.0651 38.2591 23.8975L29.8726 29.5023C29.7469 29.5866 29.6438 29.7006 29.5725 29.8341C29.5012 29.9677 29.4639 30.1167 29.4639 30.2681C29.4639 30.4195 29.5012 30.5686 29.5725 30.7021C29.6438 30.8357 29.7469 30.9496 29.8726 31.0339L38.2585 36.6393C39.4986 37.4689 40.9191 37.9898 42.4015 38.1586C43.8838 38.3274 45.3851 38.1392 46.7799 37.6097C48.1747 37.0801 49.4227 36.2246 50.4195 35.1146C51.4164 34.0045 52.1332 32.6721 52.5103 31.2286C53.2275 31.3153 53.9032 31.612 54.4523 32.0816C55.0014 32.5511 55.3995 33.1725 55.5965 33.8676C54.4371 35.7974 53.7822 37.988 53.6919 40.2374C50.9744 40.4539 48.4231 41.6323 46.4965 43.561C44.5698 45.4897 43.3941 48.0422 43.1805 50.76C40.3068 50.9809 37.6225 52.2785 35.6642 54.3931C33.7059 56.5078 32.618 59.2837 32.618 62.1658C32.618 65.048 33.7059 67.8239 35.6642 69.9386C37.6225 72.0532 40.3068 73.3508 43.1805 73.5717C43.4014 76.4454 44.699 79.1297 46.8136 81.088C48.9283 83.0463 51.7042 84.1342 54.5863 84.1342C57.4685 84.1342 60.2444 83.0463 62.3591 81.088C64.4737 79.1297 65.7713 76.4454 65.9922 73.5717C68.8642 73.3464 71.5459 72.0473 73.5029 69.9333C75.4599 67.8193 76.5486 65.0456 76.5521 62.1648ZM39.2824 25.428C40.2475 24.783 41.3489 24.3702 42.5002 24.222C43.6515 24.0738 44.8216 24.1942 45.9186 24.5738C47.0156 24.9535 48.0098 25.582 48.8232 26.4101C49.6367 27.2383 50.2473 28.2435 50.6073 29.3471H33.4187L39.2824 25.428ZM46.4377 35.7622C45.2862 36.2614 44.0277 36.4632 42.7778 36.3489C41.528 36.2346 40.3269 35.808 39.285 35.1082L33.4213 31.1886H50.6099C50.2806 32.2047 49.7377 33.1385 49.0177 33.9274C48.2976 34.7163 47.417 35.3419 46.4351 35.7622H46.4377ZM54.5863 42.0405C56.9797 42.0436 59.2857 42.9397 61.0533 44.5533C62.8209 46.167 63.9228 48.3821 64.1434 50.7652C62.0744 50.9429 60.0925 51.6792 58.4093 52.8954C56.7261 54.1116 55.4047 55.7621 54.5863 57.6706C53.7679 55.762 52.4465 54.1115 50.7632 52.8953C49.0798 51.6791 47.0978 50.9428 45.0287 50.7652C45.2497 48.3821 46.3518 46.1671 48.1194 44.5536C49.887 42.94 52.193 42.0439 54.5863 42.0405ZM34.462 62.1648C34.462 60.2657 35.0252 58.4093 36.0802 56.8303C37.1353 55.2513 38.6349 54.0206 40.3894 53.2939C42.1439 52.5671 44.0745 52.377 45.937 52.7475C47.7996 53.118 49.5105 54.0324 50.8533 55.3753C52.1962 56.7181 53.1106 58.429 53.4811 60.2916C53.8516 62.1541 53.6615 64.0847 52.9347 65.8392C52.208 67.5937 50.9773 69.0933 49.3983 70.1484C47.8193 71.2035 45.9629 71.7666 44.0638 71.7666C41.5182 71.7637 39.0776 70.7511 37.2776 68.9511C35.4775 67.151 34.4649 64.7104 34.462 62.1648ZM54.5863 82.2891C52.193 82.2857 49.887 81.3896 48.1194 79.776C46.3518 78.1624 45.2497 75.9475 45.0287 73.5644C47.0978 73.3867 49.0798 72.6505 50.7632 71.4343C52.4465 70.2181 53.7679 68.5676 54.5863 66.659C55.4047 68.5675 56.7261 70.218 58.4093 71.4342C60.0925 72.6504 62.0744 73.3866 64.1434 73.5644C63.9228 75.9475 62.8209 78.1626 61.0533 79.7762C59.2857 81.3899 56.9797 82.2859 54.5863 82.2891ZM65.1089 71.7666C63.2098 71.7666 61.3534 71.2035 59.7744 70.1484C58.1954 69.0933 56.9647 67.5937 56.238 65.8392C55.5112 64.0847 55.3211 62.1541 55.6916 60.2916C56.062 58.429 56.9765 56.7181 58.3194 55.3753C59.6622 54.0324 61.3731 53.118 63.2356 52.7475C65.0982 52.377 67.0288 52.5671 68.7833 53.2939C70.5378 54.0206 72.0374 55.2513 73.0925 56.8303C74.1475 58.4093 74.7107 60.2657 74.7107 62.1648C74.7079 64.7105 73.6954 67.1511 71.8953 68.9512C70.0952 70.7513 67.6546 71.7638 65.1089 71.7666Z" fill="#1A1A1A"/>
</svg>
