<svg width="2339" height="1501" viewBox="0 0 2339 1501" fill="none" xmlns="http://www.w3.org/2000/svg">
<g filter="url(#filter0_d_3_162)">
<path d="M126.237 1263.87C103.732 1263.74 73.8913 1284.18 73.8913 1284.18L6.02914 1278.19L133.807 0.303503L2333.43 194.656L2218.91 1490.78C2218.91 1490.78 2195.03 1370.92 2130.42 1364.81C2065.47 1358.66 2083.96 1484.31 2019.75 1473.18C1969.38 1464.45 1988.79 1390.71 1938.71 1380.69C1901.6 1373.26 1882.6 1396.23 1845.96 1404C1806.87 1412.29 1781.77 1407.58 1744.81 1421.32C1709.15 1434.57 1702.06 1473.58 1663.15 1470.55C1634.78 1468.35 1629.04 1439.31 1600.77 1436.16C1570.94 1432.84 1558.74 1461.92 1528.9 1458.69C1483.75 1453.81 1490.58 1401.35 1451.03 1380.92C1383.35 1345.96 1324.08 1416.57 1252.63 1388.33C1205.39 1369.66 1202.65 1321.41 1152.39 1311.21C1111.9 1302.99 1089.4 1332.65 1048.41 1326.97C1006.3 1321.12 993.814 1282.7 951.319 1281.63C932.11 1281.15 922.284 1289.5 903.074 1289.18C875.988 1288.73 863.319 1272.8 836.248 1271.46C768.058 1268.1 758.649 1370.09 692.006 1355.87C652.868 1347.51 649.924 1307.28 610.815 1298.8C551.806 1286.02 533.645 1360.06 473.186 1358.85C382.028 1357.02 394.914 1202.78 304.713 1212.68C246.467 1219.08 245.713 1302.99 187.487 1294.22C160.615 1290.17 153.4 1264.01 126.237 1263.87Z" fill="url(#paint0_linear_3_162)"/>
</g>
<defs>
<filter id="filter0_d_3_162" x="0.928879" y="0.303711" width="2337.6" height="1500.67" filterUnits="userSpaceOnUse" color-interpolation-filters="sRGB">
<feFlood flood-opacity="0" result="BackgroundImageFix"/>
<feColorMatrix in="SourceAlpha" type="matrix" values="0 0 0 0 0 0 0 0 0 0 0 0 0 0 0 0 0 0 127 0" result="hardAlpha"/>
<feOffset dy="5.10027"/>
<feGaussianBlur stdDeviation="2.55013"/>
<feComposite in2="hardAlpha" operator="out"/>
<feColorMatrix type="matrix" values="0 0 0 0 0 0 0 0 0 0 0 0 0 0 0 0 0 0 0.25 0"/>
<feBlend mode="normal" in2="BackgroundImageFix" result="effect1_dropShadow_3_162"/>
<feBlend mode="normal" in="SourceGraphic" in2="effect1_dropShadow_3_162" result="shape"/>
</filter>
<linearGradient id="paint0_linear_3_162" x1="1117.85" y1="1327.6" x2="1139.9" y2="1078.03" gradientUnits="userSpaceOnUse">
<stop stop-color="#FDAB1B"/>
<stop offset="0.0001" stop-color="#FCAF18"/>
<stop offset="0.369" stop-color="#F2C903"/>
<stop offset="0.499" stop-color="#F1CC00"/>
</linearGradient>
</defs>
</svg>
