<svg width="582" height="544" viewBox="0 0 582 544" fill="none" xmlns="http://www.w3.org/2000/svg">
<g filter="url(#filter0_d_3_655)">
<path d="M32.8214 29.6934C29.7208 29.2982 26.2112 26.4753 23.6063 23.9208C21.0013 21.3664 17.5922 19.6422 13.9438 19.6492C7.38122 19.6617 2.085 25.0175 2.14594 31.5799L6.59702 510.87C6.75008 527.352 20.1708 540.623 36.6529 540.592L550.291 539.613C566.859 539.582 580.265 526.125 580.233 509.556L579.394 68.6755C579.381 62.2416 560.042 59.3971 553.609 59.4725C536.668 59.6709 544.228 9.53661 527.366 11.7742C514.143 13.529 517.536 44.0139 504.357 46.3029C494.59 47.999 490.183 38.0472 480.873 33.6148C470.942 28.8869 464.344 29.9062 455.085 23.0532C446.151 16.4399 445.177 0.425889 435.043 0.278321C427.655 0.170689 425.529 11.7047 418.144 11.9823C410.353 12.2751 407.838 0.0926534 400.046 0.344983C388.257 0.726692 388.864 22.1699 378.179 29.0355C359.897 40.7833 346.122 10.1552 327.01 19.0529C314.376 24.9348 312.6 44.3397 299.372 46.6933C288.714 48.5899 283.547 35.8089 272.817 36.6637C261.791 37.5422 257.712 52.6332 246.693 51.5684C241.713 51.0872 239.355 47.3646 234.378 46.8171C227.359 46.0451 223.729 52.0392 216.696 51.6256C198.978 50.5838 198.796 9.03113 181.239 12.4335C170.928 14.4318 169.278 30.5892 158.972 32.6363C143.421 35.7252 140.358 5.16044 124.688 3.52213C101.061 1.05187 100.989 63.8454 77.8694 56.6649C62.9402 52.0282 64.5984 18.0871 49.3394 19.5818C42.2972 20.2716 39.8528 30.5896 32.8214 29.6934Z" fill="url(#paint0_linear_3_655)"/>
</g>
<defs>
<filter id="filter0_d_3_655" x="0.82011" y="0.277344" width="580.739" height="542.965" filterUnits="userSpaceOnUse" color-interpolation-filters="sRGB">
<feFlood flood-opacity="0" result="BackgroundImageFix"/>
<feColorMatrix in="SourceAlpha" type="matrix" values="0 0 0 0 0 0 0 0 0 0 0 0 0 0 0 0 0 0 127 0" result="hardAlpha"/>
<feOffset dy="1.32534"/>
<feGaussianBlur stdDeviation="0.662669"/>
<feComposite in2="hardAlpha" operator="out"/>
<feColorMatrix type="matrix" values="0 0 0 0 0 0 0 0 0 0 0 0 0 0 0 0 0 0 0.25 0"/>
<feBlend mode="normal" in2="BackgroundImageFix" result="effect1_dropShadow_3_655"/>
<feBlend mode="normal" in="SourceGraphic" in2="effect1_dropShadow_3_655" result="shape"/>
</filter>
<linearGradient id="paint0_linear_3_655" x1="290.797" y1="38.8517" x2="290.991" y2="140.499" gradientUnits="userSpaceOnUse">
<stop stop-color="#FDAB1B"/>
<stop offset="0.0001" stop-color="#FCAF18"/>
<stop offset="0.369" stop-color="#F2C903"/>
<stop offset="0.499" stop-color="#F1CC00"/>
</linearGradient>
</defs>
</svg>
